<svg width="543" height="521" viewBox="0 0 543 521" fill="none" xmlns="http://www.w3.org/2000/svg">
<g filter="url(#filter0_d)">
<g clip-path="url(#clip0)">
<path d="M519.865 0H313.675C303.107 0 294.54 9.75236 294.54 21.7825V491.218C294.54 503.248 303.107 513 313.675 513H519.865C530.433 513 539 503.248 539 491.218V21.7825C539 9.75236 530.433 0 519.865 0Z" fill="#EA4B3B"/>
<path d="M519.475 0H314.066C303.282 0 294.54 9.95138 294.54 22.227V120.915C294.54 133.191 303.282 143.142 314.066 143.142H519.475C530.258 143.142 539 133.191 539 120.915V22.227C539 9.95138 530.258 0 519.475 0Z" fill="#EA4B3B"/>
<path d="M366.728 40.229V55.1229H364.104V45.4354L360.599 55.1229H358.612L355.088 45.4354V55.1229H352.464V40.229H355.444L359.606 51.3034L363.767 40.229H366.728ZM368.648 49.1696C368.648 47.9747 368.854 46.9149 369.266 45.9902C369.692 45.0656 370.26 44.3543 370.973 43.8564C371.697 43.3586 372.503 43.1096 373.391 43.1096C374.165 43.1096 374.84 43.2874 375.415 43.6431C376.002 43.9987 376.471 44.4468 376.821 44.9874V43.3017H379.464V55.1229H376.821V53.3945C376.483 53.9493 376.015 54.4116 375.415 54.7815C374.828 55.1371 374.147 55.3149 373.372 55.3149C372.497 55.3149 371.697 55.0589 370.973 54.5468C370.26 54.0346 369.692 53.3163 369.266 52.3916C368.854 51.4528 368.648 50.3787 368.648 49.1696ZM376.821 49.2123C376.821 48.4868 376.696 47.868 376.446 47.3559C376.196 46.8295 375.859 46.4312 375.434 46.1609C375.009 45.8764 374.553 45.7342 374.065 45.7342C373.578 45.7342 373.128 45.8693 372.716 46.1396C372.303 46.4099 371.966 46.8082 371.704 47.3345C371.454 47.8466 371.329 48.4583 371.329 49.1696C371.329 49.8809 371.454 50.5068 371.704 51.0473C371.966 51.5737 372.303 51.9791 372.716 52.2636C373.141 52.5481 373.591 52.6904 374.065 52.6904C374.553 52.6904 375.009 52.5552 375.434 52.2849C375.859 52.0004 376.196 51.6021 376.446 51.09C376.696 50.5637 376.821 49.9378 376.821 49.2123ZM383.358 41.8933C382.895 41.8933 382.508 41.7298 382.195 41.4026C381.896 41.0612 381.746 40.6415 381.746 40.1436C381.746 39.6457 381.896 39.2332 382.195 38.906C382.508 38.5646 382.895 38.3939 383.358 38.3939C383.82 38.3939 384.201 38.5646 384.501 38.906C384.813 39.2332 384.97 39.6457 384.97 40.1436C384.97 40.6415 384.813 41.0612 384.501 41.4026C384.201 41.7298 383.82 41.8933 383.358 41.8933ZM384.651 43.3017V55.1229H382.027V43.3017H384.651ZM392.998 43.131C394.235 43.131 395.233 43.579 395.999 44.4752C396.76 45.3572 397.139 46.5948 397.139 48.188V55.1229H394.515V48.5935C394.515 47.6546 394.31 46.9362 393.898 46.4383C393.485 45.9262 392.923 45.6702 392.211 45.6702C391.486 45.6702 390.911 45.9262 390.486 46.4383C390.074 46.9362 389.868 47.6546 389.868 48.5935V55.1229H387.244V43.3017H389.868V44.774C390.218 44.2619 390.661 43.8636 391.199 43.579C391.748 43.2803 392.348 43.131 392.998 43.131ZM402.692 45.7555V51.4741C402.692 51.8724 402.774 52.164 402.934 52.3489C403.11 52.5197 403.399 52.605 403.797 52.605H405.016V55.1229H403.368C401.154 55.1229 400.048 53.8995 400.048 51.4528V45.7555H398.81V43.3017H400.048V40.3784H402.692V43.3017H405.016V45.7555H402.692ZM416.555 48.9562C416.555 49.383 416.532 49.7671 416.481 50.1085H408.89C408.952 50.962 409.214 51.6306 409.678 52.1142C410.139 52.5979 410.709 52.8397 411.385 52.8397C412.357 52.8397 413.052 52.3632 413.462 51.4101H416.294C415.993 52.5481 415.419 53.487 414.572 54.2267C413.72 54.9522 412.678 55.3149 411.44 55.3149C410.44 55.3149 409.542 55.066 408.741 54.5681C407.952 54.056 407.335 53.3376 406.886 52.413C406.449 51.4883 406.23 50.4214 406.23 49.2123C406.23 47.9889 406.449 46.9149 406.886 45.9902C407.324 45.0656 407.933 44.3543 408.722 43.8564C409.51 43.3586 410.416 43.1096 411.44 43.1096C412.428 43.1096 413.306 43.3514 414.083 43.8351C414.868 44.3188 415.478 45.0087 415.899 45.9049C416.337 46.7869 416.555 47.804 416.555 48.9562ZM413.837 48.1027C413.826 47.3345 413.584 46.7228 413.107 46.2676C412.635 45.7982 412.053 45.5635 411.365 45.5635C410.713 45.5635 410.167 45.7911 409.714 46.2463C409.276 46.6873 409.011 47.3061 408.909 48.1027H413.837ZM424.225 43.131C425.463 43.131 426.463 43.579 427.224 44.4752C427.989 45.3572 428.368 46.5948 428.368 48.188V55.1229H425.744V48.5935C425.744 47.6546 425.537 46.9362 425.127 46.4383C424.713 45.9262 424.151 45.6702 423.44 45.6702C422.714 45.6702 422.14 45.9262 421.714 46.4383C421.304 46.9362 421.097 47.6546 421.097 48.5935V55.1229H418.473V43.3017H421.097V44.774C421.444 44.2619 421.89 43.8636 422.429 43.579C422.975 43.2803 423.577 43.131 424.225 43.131ZM430.192 49.1696C430.192 47.9747 430.395 46.9149 430.809 45.9902C431.235 45.0656 431.801 44.3543 432.515 43.8564C433.238 43.3586 434.046 43.1096 434.933 43.1096C435.706 43.1096 436.382 43.2874 436.956 43.6431C437.545 43.9987 438.014 44.4468 438.361 44.9874V43.3017H441.005V55.1229H438.361V53.3945C438.026 53.9493 437.557 54.4116 436.956 54.7815C436.37 55.1371 435.69 55.3149 434.913 55.3149C434.038 55.3149 433.238 55.0589 432.515 54.5468C431.801 54.0346 431.235 53.3163 430.809 52.3916C430.395 51.4528 430.192 50.3787 430.192 49.1696ZM438.361 49.2123C438.361 48.4868 438.236 47.868 437.987 47.3559C437.737 46.8295 437.401 46.4312 436.975 46.1609C436.549 45.8764 436.096 45.7342 435.608 45.7342C435.12 45.7342 434.671 45.8693 434.257 46.1396C433.847 46.4099 433.507 46.8082 433.246 47.3345C432.996 47.8466 432.871 48.4583 432.871 49.1696C432.871 49.8809 432.996 50.5068 433.246 51.0473C433.507 51.5737 433.847 51.9791 434.257 52.2636C434.683 52.5481 435.132 52.6904 435.608 52.6904C436.096 52.6904 436.549 52.5552 436.975 52.2849C437.401 52.0004 437.737 51.6021 437.987 51.09C438.236 50.5637 438.361 49.9378 438.361 49.2123ZM449.323 43.131C450.561 43.131 451.561 43.579 452.322 44.4752C453.084 45.3572 453.466 46.5948 453.466 48.188V55.1229H450.842V48.5935C450.842 47.6546 450.635 46.9362 450.221 46.4383C449.811 45.9262 449.249 45.6702 448.534 45.6702C447.812 45.6702 447.238 45.9262 446.812 46.4383C446.398 46.9362 446.191 47.6546 446.191 48.5935V55.1229H443.567V43.3017H446.191V44.774C446.543 44.2619 446.988 43.8636 447.523 43.579C448.073 43.2803 448.675 43.131 449.323 43.131ZM455.286 49.2123C455.286 47.9889 455.505 46.922 455.942 46.0116C456.38 45.0869 456.985 44.3757 457.762 43.8778C458.535 43.3657 459.422 43.1096 460.421 43.1096C461.71 43.1096 462.772 43.4795 463.608 44.2192C464.459 44.9447 465.026 45.9689 465.315 47.2919H462.483C462.335 46.7797 462.077 46.3814 461.714 46.0969C461.366 45.7982 460.929 45.6488 460.402 45.6488C459.652 45.6488 459.059 45.9618 458.621 46.5877C458.184 47.1994 457.965 48.0742 457.965 49.2123C457.965 50.3361 458.184 51.2109 458.621 51.8368C459.059 52.4485 459.652 52.7544 460.402 52.7544C461.464 52.7544 462.159 52.2138 462.483 51.1327H465.315C465.026 52.413 464.459 53.4301 463.608 54.184C462.761 54.938 461.698 55.3149 460.421 55.3149C459.422 55.3149 458.535 55.066 457.762 54.5681C456.985 54.056 456.38 53.3447 455.942 52.4343C455.505 51.5097 455.286 50.4356 455.286 49.2123ZM476.889 48.9562C476.889 49.383 476.866 49.7671 476.815 50.1085H469.223C469.286 50.962 469.548 51.6306 470.012 52.1142C470.473 52.5979 471.043 52.8397 471.719 52.8397C472.691 52.8397 473.386 52.3632 473.796 51.4101H476.628C476.327 52.5481 475.753 53.487 474.905 54.2267C474.054 54.9522 473.011 55.3149 471.774 55.3149C470.774 55.3149 469.876 55.066 469.075 54.5681C468.286 54.056 467.669 53.3376 467.22 52.413C466.783 51.4883 466.564 50.4214 466.564 49.2123C466.564 47.9889 466.783 46.9149 467.22 45.9902C467.658 45.0656 468.267 44.3543 469.056 43.8564C469.844 43.3586 470.75 43.1096 471.774 43.1096C472.762 43.1096 473.64 43.3514 474.417 43.8351C475.202 44.3188 475.811 45.0087 476.233 45.9049C476.671 46.7869 476.889 47.804 476.889 48.9562ZM474.171 48.1027C474.16 47.3345 473.917 46.7228 473.441 46.2676C472.969 45.7982 472.387 45.5635 471.699 45.5635C471.047 45.5635 470.501 45.7911 470.048 46.2463C469.61 46.6873 469.345 47.3061 469.243 48.1027H474.171ZM389.309 87.1298H386.685L380.743 76.9089V87.1298H378.118V72.2146H380.743L386.685 82.4568V72.2146H389.309V87.1298ZM396.514 87.3219C395.515 87.3219 394.612 87.0729 393.814 86.575C393.015 86.0629 392.383 85.3445 391.921 84.4199C391.471 83.4953 391.246 82.4284 391.246 81.2192C391.246 80.0101 391.477 78.9432 391.94 78.0185C392.415 77.0939 393.058 76.3826 393.871 75.8847C394.683 75.3726 395.589 75.1165 396.588 75.1165C397.588 75.1165 398.494 75.3726 399.306 75.8847C400.119 76.3826 400.755 77.0939 401.22 78.0185C401.692 78.9432 401.931 80.0101 401.931 81.2192C401.931 82.4284 401.689 83.4953 401.2 84.4199C400.724 85.3445 400.076 86.0629 399.252 86.575C398.44 87.0729 397.526 87.3219 396.514 87.3219ZM396.514 84.7186C396.987 84.7186 397.432 84.5906 397.846 84.3345C398.268 84.0643 398.607 83.666 398.857 83.1396C399.107 82.6133 399.232 81.9731 399.232 81.2192C399.232 80.0954 398.971 79.2348 398.443 78.6373C397.932 78.0256 397.299 77.7198 396.549 77.7198C395.8 77.7198 395.171 78.0256 394.659 78.6373C394.158 79.2348 393.908 80.0954 393.908 81.2192C393.908 82.343 394.152 83.2107 394.64 83.8224C395.14 84.4199 395.765 84.7186 396.514 84.7186ZM406.91 77.7625V83.481C406.91 83.8793 406.992 84.171 407.156 84.3559C407.331 84.5266 407.616 84.6119 408.019 84.6119H409.237V87.1298H407.585C405.375 87.1298 404.27 85.9064 404.27 83.4597V77.7625H403.032V75.3086H404.27V72.3853H406.91V75.3086H409.237V77.7625H406.91ZM425.131 76.8449C425.131 77.6415 424.963 78.3884 424.623 79.0854C424.299 79.7825 423.78 80.3443 423.069 80.7711C422.37 81.1979 421.48 81.4112 420.406 81.4112H418.215V87.1298H415.591V72.2359H420.406C421.417 72.2359 422.28 72.4351 422.995 72.8334C423.706 73.2317 424.237 73.7794 424.588 74.4764C424.947 75.1734 425.131 75.963 425.131 76.8449ZM420.293 79.0001C421.019 79.0001 421.558 78.8151 421.905 78.4453C422.257 78.0612 422.432 77.5277 422.432 76.8449C422.432 75.3939 421.718 74.6685 420.293 74.6685H418.215V79.0001H420.293ZM426.318 81.1765C426.318 79.9816 426.525 78.9218 426.939 77.9972C427.361 77.0725 427.931 76.3613 428.642 75.8634C429.368 75.3655 430.172 75.1165 431.063 75.1165C431.836 75.1165 432.512 75.2944 433.086 75.65C433.671 76.0056 434.14 76.4537 434.491 76.9943V75.3086H437.135V87.1298H434.491V85.4014C434.156 85.9562 433.687 86.4186 433.086 86.7884C432.5 87.144 431.816 87.3219 431.043 87.3219C430.169 87.3219 429.368 87.0658 428.642 86.5537C427.931 86.0416 427.361 85.3232 426.939 84.3986C426.525 83.4597 426.318 82.3857 426.318 81.1765ZM434.491 81.2192C434.491 80.4937 434.367 79.8749 434.117 79.3628C433.867 78.8365 433.531 78.4382 433.105 78.1679C432.679 77.8834 432.223 77.7411 431.734 77.7411C431.25 77.7411 430.797 77.8763 430.387 78.1465C429.973 78.4168 429.637 78.8151 429.376 79.3415C429.126 79.8536 429.001 80.4653 429.001 81.1765C429.001 81.8878 429.126 82.5137 429.376 83.0543C429.637 83.5806 429.973 83.986 430.387 84.2705C430.813 84.555 431.262 84.6973 431.734 84.6973C432.223 84.6973 432.679 84.5622 433.105 84.2919C433.531 84.0074 433.867 83.6091 434.117 83.0969C434.367 82.5706 434.491 81.9447 434.491 81.2192ZM441.029 73.9003C440.564 73.9003 440.177 73.7367 439.865 73.4095C439.564 73.0681 439.416 72.6485 439.416 72.1506C439.416 71.6527 439.564 71.2402 439.865 70.913C440.177 70.5716 440.564 70.4009 441.029 70.4009C441.489 70.4009 441.872 70.5716 442.173 70.913C442.485 71.2402 442.641 71.6527 442.641 72.1506C442.641 72.6485 442.485 73.0681 442.173 73.4095C441.872 73.7367 441.489 73.9003 441.029 73.9003ZM442.321 75.3086V87.1298H439.697V75.3086H442.321ZM444.239 81.1765C444.239 79.9816 444.446 78.9218 444.86 77.9972C445.281 77.0725 445.859 76.3613 446.582 75.8634C447.308 75.3655 448.113 75.1165 448.999 75.1165C449.675 75.1165 450.319 75.2873 450.932 75.6287C451.545 75.9558 452.029 76.3968 452.392 76.9516V71.3397H455.056V87.1298H452.392V85.3801C452.068 85.9633 451.611 86.4328 451.026 86.7884C450.436 87.144 449.757 87.3219 448.983 87.3219C448.109 87.3219 447.308 87.0658 446.582 86.5537C445.859 86.0416 445.281 85.3232 444.86 84.3986C444.446 83.4597 444.239 82.3857 444.239 81.1765ZM452.412 81.2192C452.412 80.4937 452.287 79.8749 452.037 79.3628C451.787 78.8365 451.451 78.4382 451.026 78.1679C450.6 77.8834 450.143 77.7411 449.655 77.7411C449.171 77.7411 448.718 77.8763 448.308 78.1465C447.894 78.4168 447.558 78.8151 447.296 79.3415C447.046 79.8536 446.921 80.4653 446.921 81.1765C446.921 81.8878 447.046 82.5137 447.296 83.0543C447.558 83.5806 447.894 83.986 448.308 84.2705C448.733 84.555 449.182 84.6973 449.655 84.6973C450.143 84.6973 450.6 84.5622 451.026 84.2919C451.451 84.0074 451.787 83.6091 452.037 83.0969C452.287 82.5706 452.412 81.9447 452.412 81.2192Z" fill="white"/>
<path d="M522.989 123.138H310.551C301.709 123.138 294.54 131.298 294.54 141.364V494.774C294.54 504.84 301.709 513 310.551 513H522.989C531.832 513 539 504.84 539 494.774V141.364C539 131.298 531.832 123.138 522.989 123.138Z" fill="white"/>
<path d="M376.112 154.22V157.954H380.517V160.323H376.112V164.27H381.079V166.703H373.487V151.787H381.079V154.22H376.112ZM389.199 166.703L387.062 163.033L385.169 166.703H382.357L385.75 160.771L382.32 154.881H385.282L387.4 158.53L389.312 154.881H392.123L388.712 160.771L392.161 166.703H389.199ZM396.21 156.589C396.549 156.048 397.01 155.6 397.596 155.244C398.197 154.874 398.877 154.689 399.642 154.689C400.529 154.689 401.329 154.938 402.04 155.436C402.766 155.934 403.333 156.645 403.746 157.57C404.172 158.48 404.383 159.54 404.383 160.749C404.383 161.959 404.172 163.033 403.746 163.971C403.333 164.896 402.766 165.614 402.04 166.127C401.329 166.639 400.529 166.895 399.642 166.895C398.877 166.895 398.205 166.717 397.615 166.361C397.041 166.006 396.573 165.558 396.21 165.017V172.336H393.586V154.881H396.21V156.589ZM401.704 160.749C401.704 160.038 401.571 159.426 401.31 158.914C401.06 158.388 400.72 157.99 400.298 157.719C399.884 157.449 399.435 157.314 398.947 157.314C398.471 157.314 398.022 157.456 397.596 157.741C397.186 158.011 396.846 158.409 396.584 158.936C396.335 159.462 396.21 160.081 396.21 160.792C396.21 161.503 396.335 162.122 396.584 162.648C396.846 163.175 397.186 163.58 397.596 163.865C398.022 164.135 398.471 164.27 398.947 164.27C399.435 164.27 399.884 164.128 400.298 163.843C400.72 163.559 401.06 163.153 401.31 162.627C401.571 162.101 401.704 161.475 401.704 160.749ZM415.942 160.536C415.942 160.963 415.919 161.347 415.868 161.688H408.276C408.339 162.542 408.601 163.21 409.065 163.694C409.526 164.178 410.096 164.42 410.772 164.42C411.744 164.42 412.439 163.943 412.849 162.99H415.68C415.38 164.128 414.806 165.067 413.958 165.807C413.107 166.532 412.064 166.895 410.826 166.895C409.827 166.895 408.929 166.646 408.128 166.148C407.339 165.636 406.722 164.917 406.273 163.993C405.836 163.068 405.617 162.001 405.617 160.792C405.617 159.569 405.836 158.495 406.273 157.57C406.71 156.645 407.32 155.934 408.108 155.436C408.897 154.938 409.803 154.689 410.826 154.689C411.814 154.689 412.693 154.931 413.47 155.415C414.255 155.899 414.864 156.589 415.286 157.485C415.723 158.367 415.942 159.384 415.942 160.536ZM413.224 159.683C413.212 158.914 412.97 158.303 412.494 157.847C412.021 157.378 411.439 157.143 410.752 157.143C410.1 157.143 409.553 157.371 409.1 157.826C408.663 158.267 408.397 158.886 408.296 159.683H413.224ZM423.612 154.711C424.85 154.711 425.849 155.159 426.611 156.055C427.376 156.937 427.755 158.175 427.755 159.768V166.703H425.131V160.173C425.131 159.234 424.924 158.516 424.514 158.018C424.1 157.506 423.538 157.25 422.827 157.25C422.1 157.25 421.526 157.506 421.101 158.018C420.691 158.516 420.484 159.234 420.484 160.173V166.703H417.86V154.881H420.484V156.354C420.831 155.842 421.277 155.443 421.815 155.159C422.362 154.86 422.964 154.711 423.612 154.711ZM434.226 166.895C433.375 166.895 432.613 166.724 431.937 166.383C431.262 166.027 430.727 165.55 430.325 164.953C429.938 164.356 429.727 163.694 429.688 162.969H432.332C432.383 163.424 432.574 163.801 432.914 164.099C433.261 164.398 433.695 164.548 434.206 164.548C434.706 164.548 435.093 164.434 435.37 164.206C435.655 163.979 435.8 163.687 435.8 163.331C435.8 162.947 435.624 162.663 435.276 162.478C434.937 162.279 434.394 162.065 433.644 161.838C432.871 161.624 432.23 161.404 431.73 161.176C431.246 160.949 430.821 160.6 430.457 160.131C430.106 159.661 429.934 159.028 429.934 158.232C429.934 157.577 430.094 156.98 430.418 156.439C430.758 155.899 431.231 155.472 431.844 155.159C432.469 154.846 433.199 154.689 434.038 154.689C435.276 154.689 436.26 155.045 436.998 155.756C437.737 156.453 438.143 157.399 438.217 158.594H435.706C435.667 158.125 435.495 157.755 435.183 157.485C434.882 157.2 434.476 157.058 433.964 157.058C433.488 157.058 433.121 157.158 432.855 157.357C432.605 157.556 432.48 157.833 432.48 158.189C432.48 158.587 432.656 158.893 433.007 159.106C433.355 159.306 433.902 159.512 434.636 159.725C435.386 159.939 436.007 160.159 436.495 160.387C436.979 160.614 437.401 160.97 437.748 161.454C438.111 161.923 438.299 162.549 438.311 163.331C438.311 164.014 438.143 164.626 437.807 165.166C437.479 165.707 437.006 166.134 436.381 166.447C435.768 166.745 435.05 166.895 434.226 166.895ZM450.12 160.536C450.12 160.963 450.096 161.347 450.045 161.688H442.454C442.516 162.542 442.778 163.21 443.239 163.694C443.704 164.178 444.27 164.42 444.945 164.42C445.922 164.42 446.613 163.943 447.027 162.99H449.858C449.557 164.128 448.983 165.067 448.132 165.807C447.285 166.532 446.238 166.895 445.004 166.895C444.004 166.895 443.102 166.646 442.302 166.148C441.517 165.636 440.896 164.917 440.447 163.993C440.009 163.068 439.791 162.001 439.791 160.792C439.791 159.569 440.009 158.495 440.447 157.57C440.884 156.645 441.497 155.934 442.286 155.436C443.071 154.938 443.977 154.689 445.004 154.689C445.988 154.689 446.871 154.931 447.644 155.415C448.433 155.899 449.038 156.589 449.464 157.485C449.901 158.367 450.12 159.384 450.12 160.536ZM447.402 159.683C447.39 158.914 447.144 158.303 446.671 157.847C446.195 157.378 445.613 157.143 444.926 157.143C444.278 157.143 443.727 157.371 443.278 157.826C442.841 158.267 442.571 158.886 442.473 159.683H447.402ZM456.009 166.895C455.157 166.895 454.396 166.724 453.72 166.383C453.048 166.027 452.51 165.55 452.111 164.953C451.721 164.356 451.51 163.694 451.471 162.969H454.115C454.165 163.424 454.361 163.801 454.696 164.099C455.048 164.398 455.477 164.548 455.989 164.548C456.489 164.548 456.875 164.434 457.153 164.206C457.438 163.979 457.582 163.687 457.582 163.331C457.582 162.947 457.407 162.663 457.059 162.478C456.719 162.279 456.176 162.065 455.427 161.838C454.653 161.624 454.017 161.404 453.517 161.176C453.029 160.949 452.603 160.6 452.24 160.131C451.893 159.661 451.717 159.028 451.717 158.232C451.717 157.577 451.877 156.98 452.205 156.439C452.541 155.899 453.017 155.472 453.626 155.159C454.251 154.846 454.985 154.689 455.821 154.689C457.059 154.689 458.047 155.045 458.781 155.756C459.519 156.453 459.925 157.399 460 158.594H457.489C457.453 158.125 457.278 157.755 456.965 157.485C456.665 157.2 456.258 157.058 455.747 157.058C455.27 157.058 454.903 157.158 454.642 157.357C454.392 157.556 454.267 157.833 454.267 158.189C454.267 158.587 454.439 158.893 454.79 159.106C455.142 159.306 455.684 159.512 456.422 159.725C457.172 159.939 457.789 160.159 458.277 160.387C458.766 160.614 459.183 160.97 459.531 161.454C459.894 161.923 460.082 162.549 460.093 163.331C460.093 164.014 459.925 164.626 459.59 165.166C459.265 165.707 458.789 166.134 458.164 166.447C457.551 166.745 456.833 166.895 456.009 166.895Z" fill="black"/>
<path d="M332.599 200.561L330.195 209.379H328.508L326.948 202.865L325.387 209.379H323.7L321.282 200.561H322.913L324.529 207.65L326.174 200.561H327.847L329.422 207.618L331.024 200.561H332.599ZM333.262 204.93C333.262 204.044 333.422 203.26 333.74 202.577C334.068 201.894 334.509 201.366 335.062 200.993C335.624 200.609 336.243 200.417 336.918 200.417C337.527 200.417 338.056 200.555 338.506 200.833C338.965 201.1 339.331 201.436 339.603 201.841V200.561H341.22V209.379H339.603V208.066C339.331 208.483 338.961 208.829 338.492 209.107C338.024 209.384 337.489 209.523 336.89 209.523C336.224 209.523 335.615 209.331 335.062 208.947C334.509 208.552 334.068 208.008 333.74 207.314C333.422 206.61 333.262 205.815 333.262 204.93ZM339.603 204.962C339.603 204.354 339.49 203.825 339.265 203.377C339.05 202.929 338.764 202.588 338.408 202.353C338.052 202.118 337.667 202.001 337.255 202.001C336.843 202.001 336.458 202.118 336.102 202.353C335.746 202.577 335.456 202.913 335.231 203.361C335.015 203.799 334.907 204.322 334.907 204.93C334.907 205.538 335.015 206.071 335.231 206.53C335.456 206.989 335.746 207.341 336.102 207.586C336.468 207.821 336.852 207.938 337.255 207.938C337.667 207.938 338.052 207.821 338.408 207.586C338.764 207.352 339.05 207.01 339.265 206.562C339.49 206.103 339.603 205.57 339.603 204.962ZM345.195 202.049V206.93C345.195 207.261 345.26 207.501 345.391 207.65C345.532 207.789 345.766 207.858 346.094 207.858H347.078V209.379H345.813C345.091 209.379 344.538 209.187 344.154 208.803C343.77 208.418 343.578 207.794 343.578 206.93V202.049H342.664V200.561H343.578V198.368H345.195V200.561H347.078V202.049H345.195ZM355.655 204.754C355.655 205.084 355.636 205.383 355.599 205.65H349.68C349.727 206.354 349.956 206.92 350.369 207.346C350.781 207.773 351.287 207.986 351.887 207.986C352.749 207.986 353.359 207.576 353.715 206.754H355.444C355.21 207.565 354.783 208.232 354.165 208.755C353.555 209.267 352.796 209.523 351.887 209.523C351.147 209.523 350.481 209.336 349.891 208.963C349.31 208.579 348.85 208.045 348.513 207.362C348.185 206.669 348.021 205.869 348.021 204.962C348.021 204.055 348.18 203.26 348.499 202.577C348.827 201.884 349.282 201.35 349.863 200.977C350.453 200.603 351.128 200.417 351.887 200.417C352.618 200.417 353.27 200.598 353.841 200.961C354.413 201.324 354.858 201.836 355.177 202.497C355.495 203.148 355.655 203.9 355.655 204.754ZM353.982 204.178C353.972 203.505 353.762 202.967 353.349 202.561C352.937 202.156 352.426 201.953 351.817 201.953C351.264 201.953 350.791 202.156 350.397 202.561C350.003 202.956 349.769 203.495 349.694 204.178H353.982ZM358.835 201.841C359.069 201.393 359.378 201.046 359.763 200.801C360.156 200.545 360.62 200.417 361.154 200.417V202.305H360.747C360.119 202.305 359.641 202.487 359.313 202.849C358.994 203.212 358.835 203.842 358.835 204.738V209.379H357.232V200.561H358.835V201.841ZM367.882 201.873C368.154 201.446 368.524 201.1 368.993 200.833C369.471 200.555 370 200.417 370.581 200.417C371.265 200.417 371.884 200.603 372.437 200.977C372.99 201.35 373.426 201.884 373.744 202.577C374.063 203.26 374.222 204.044 374.222 204.93C374.222 205.815 374.063 206.61 373.744 207.314C373.426 208.008 372.985 208.552 372.423 208.947C371.87 209.331 371.256 209.523 370.581 209.523C369.981 209.523 369.447 209.389 368.979 209.123C368.519 208.856 368.154 208.515 367.882 208.098V209.379H366.279V197.536H367.882V201.873ZM372.592 204.93C372.592 204.322 372.479 203.799 372.254 203.361C372.039 202.913 371.748 202.577 371.383 202.353C371.026 202.118 370.642 202.001 370.23 202.001C369.827 202.001 369.443 202.118 369.077 202.353C368.721 202.588 368.43 202.929 368.205 203.377C367.99 203.825 367.882 204.354 367.882 204.962C367.882 205.57 367.99 206.103 368.205 206.562C368.43 207.01 368.721 207.352 369.077 207.586C369.443 207.821 369.827 207.938 370.23 207.938C370.642 207.938 371.026 207.821 371.383 207.586C371.748 207.341 372.039 206.989 372.254 206.53C372.479 206.071 372.592 205.538 372.592 204.93ZM376.622 199.393C376.332 199.393 376.088 199.281 375.891 199.056C375.695 198.832 375.596 198.555 375.596 198.224C375.596 197.894 375.695 197.616 375.891 197.392C376.088 197.168 376.332 197.056 376.622 197.056C376.904 197.056 377.143 197.168 377.339 197.392C377.536 197.616 377.635 197.894 377.635 198.224C377.635 198.555 377.536 198.832 377.339 199.056C377.143 199.281 376.904 199.393 376.622 199.393ZM377.41 200.561V209.379H375.807V200.561H377.41ZM381.116 197.536V209.379H379.514V197.536H381.116ZM384.824 197.536V209.379H383.221V197.536H384.824Z" fill="black"/>
<path d="M453.849 206.898C454.747 206.013 455.458 205.287 455.973 204.722C456.497 204.146 456.934 203.548 457.278 202.929C457.625 202.311 457.801 201.692 457.801 201.073C457.801 200.433 457.664 199.931 457.391 199.569C457.129 199.206 456.712 199.025 456.141 199.025C455.587 199.025 455.157 199.227 454.849 199.633C454.548 200.027 454.388 200.561 454.368 201.233H452.822C452.849 200.017 453.17 199.089 453.779 198.448C454.396 197.798 455.181 197.472 456.126 197.472C457.149 197.472 457.946 197.792 458.516 198.432C459.098 199.073 459.387 199.926 459.387 200.993C459.387 201.761 459.215 202.503 458.867 203.217C458.531 203.922 458.121 204.556 457.645 205.122C457.176 205.677 456.575 206.322 455.845 207.058L455.212 207.698H459.668V209.219H452.838V207.89L453.849 206.898ZM467.685 199.281H462.975V202.465C463.171 202.167 463.463 201.916 463.846 201.713C464.241 201.51 464.658 201.409 465.096 201.409C465.885 201.409 466.521 201.601 467.009 201.985C467.505 202.369 467.857 202.855 468.064 203.441C468.278 204.028 468.388 204.647 468.388 205.298C468.388 206.087 468.251 206.792 467.978 207.41C467.716 208.018 467.318 208.499 466.783 208.851C466.259 209.203 465.611 209.379 464.846 209.379C463.823 209.379 463.003 209.091 462.386 208.515C461.765 207.938 461.394 207.176 461.273 206.226H462.835C462.936 206.727 463.167 207.128 463.522 207.426C463.877 207.714 464.323 207.858 464.858 207.858C465.525 207.858 466.021 207.629 466.349 207.17C466.685 206.712 466.853 206.103 466.853 205.346C466.853 204.578 466.685 203.991 466.349 203.585C466.01 203.169 465.514 202.961 464.858 202.961C464.401 202.961 464.01 203.095 463.69 203.361C463.381 203.617 463.159 203.97 463.018 204.418H461.499V197.68H467.685V199.281ZM470.055 203.393C470.055 201.548 470.329 200.107 470.871 199.073C471.426 198.027 472.371 197.504 473.71 197.504C475.05 197.504 475.995 198.027 476.538 199.073C477.088 200.107 477.366 201.548 477.366 203.393C477.366 205.261 477.088 206.722 476.538 207.778C475.995 208.824 475.05 209.347 473.71 209.347C472.371 209.347 471.426 208.824 470.871 207.778C470.329 206.722 470.055 205.261 470.055 203.393ZM475.792 203.393C475.792 202.529 475.741 201.798 475.636 201.201C475.542 200.604 475.347 200.118 475.046 199.745C474.745 199.361 474.3 199.169 473.71 199.169C473.121 199.169 472.676 199.361 472.375 199.745C472.074 200.118 471.875 200.604 471.77 201.201C471.676 201.798 471.629 202.529 471.629 203.393C471.629 204.29 471.676 205.042 471.77 205.65C471.863 206.258 472.062 206.749 472.363 207.122C472.672 207.496 473.121 207.682 473.71 207.682C474.3 207.682 474.745 207.496 475.046 207.122C475.354 206.749 475.558 206.258 475.651 205.65C475.745 205.042 475.792 204.29 475.792 203.393ZM479.06 203.393C479.06 201.548 479.334 200.107 479.877 199.073C480.431 198.027 481.376 197.504 482.716 197.504C484.059 197.504 485 198.027 485.543 199.073C486.097 200.107 486.371 201.548 486.371 203.393C486.371 205.261 486.097 206.722 485.543 207.778C485 208.824 484.059 209.347 482.716 209.347C481.376 209.347 480.431 208.824 479.877 207.778C479.334 206.722 479.06 205.261 479.06 203.393ZM484.797 203.393C484.797 202.529 484.746 201.798 484.645 201.201C484.551 200.604 484.352 200.118 484.051 199.745C483.754 199.361 483.309 199.169 482.716 199.169C482.126 199.169 481.681 199.361 481.38 199.745C481.083 200.118 480.88 200.604 480.779 201.201C480.685 201.798 480.638 202.529 480.638 203.393C480.638 204.29 480.685 205.042 480.779 205.65C480.872 206.258 481.068 206.749 481.368 207.122C481.677 207.496 482.126 207.682 482.716 207.682C483.309 207.682 483.754 207.496 484.051 207.122C484.364 206.749 484.563 206.258 484.656 205.65C484.75 205.042 484.797 204.29 484.797 203.393ZM488.07 203.393C488.07 201.548 488.339 200.107 488.882 199.073C489.436 198.027 490.381 197.504 491.725 197.504C493.064 197.504 494.005 198.027 494.548 199.073C495.103 200.107 495.38 201.548 495.38 203.393C495.38 205.261 495.103 206.722 494.548 207.778C494.005 208.824 493.064 209.347 491.725 209.347C490.381 209.347 489.436 208.824 488.882 207.778C488.339 206.722 488.07 205.261 488.07 203.393ZM493.802 203.393C493.802 202.529 493.751 201.798 493.65 201.201C493.556 200.604 493.357 200.118 493.06 199.745C492.76 199.361 492.314 199.169 491.725 199.169C491.131 199.169 490.686 199.361 490.389 199.745C490.088 200.118 489.885 200.604 489.784 201.201C489.69 201.798 489.643 202.529 489.643 203.393C489.643 204.29 489.69 205.042 489.784 205.65C489.878 206.258 490.073 206.749 490.374 207.122C490.682 207.496 491.131 207.682 491.725 207.682C492.314 207.682 492.76 207.496 493.06 207.122C493.369 206.749 493.568 206.258 493.662 205.65C493.755 205.042 493.802 204.29 493.802 203.393Z" fill="black"/>
<path d="M323.213 239.636C323.213 238.729 323.372 237.934 323.691 237.251C324.019 236.558 324.469 236.024 325.04 235.651C325.612 235.278 326.268 235.091 327.009 235.091C327.946 235.091 328.719 235.347 329.328 235.859C329.947 236.36 330.364 237.081 330.579 238.019H328.85C328.71 237.582 328.485 237.241 328.176 236.995C327.866 236.75 327.477 236.627 327.009 236.627C326.353 236.627 325.828 236.894 325.434 237.427C325.05 237.95 324.858 238.686 324.858 239.636C324.858 240.585 325.05 241.327 325.434 241.86C325.828 242.394 326.353 242.66 327.009 242.66C327.936 242.66 328.55 242.196 328.85 241.268H330.579C330.355 242.164 329.933 242.879 329.314 243.413C328.696 243.935 327.927 244.197 327.009 244.197C326.268 244.197 325.612 244.01 325.04 243.637C324.469 243.253 324.019 242.719 323.691 242.036C323.372 241.343 323.213 240.543 323.213 239.636ZM339.192 235.235V244.053H337.589V243.013C337.336 243.375 337.003 243.663 336.591 243.877C336.188 244.079 335.757 244.181 335.298 244.181C334.688 244.181 334.14 244.037 333.653 243.749C333.175 243.461 332.795 243.034 332.514 242.468C332.242 241.903 332.106 241.22 332.106 240.42V235.235H333.695V240.148C333.695 240.937 333.868 241.546 334.215 241.972C334.562 242.388 335.035 242.596 335.635 242.596C336.235 242.596 336.708 242.388 337.055 241.972C337.411 241.546 337.589 240.937 337.589 240.148V235.235H339.192ZM342.909 236.515C343.143 236.067 343.453 235.72 343.837 235.475C344.231 235.219 344.695 235.091 345.229 235.091V236.979H344.821C344.193 236.979 343.715 237.161 343.387 237.523C343.068 237.886 342.909 238.516 342.909 239.412V244.053H341.306V235.235H342.909V236.515ZM348.304 236.515C348.539 236.067 348.848 235.72 349.232 235.475C349.626 235.219 350.09 235.091 350.624 235.091V236.979H350.216C349.588 236.979 349.11 237.161 348.782 237.523C348.464 237.886 348.304 238.516 348.304 239.412V244.053H346.702V235.235H348.304V236.515ZM359.196 239.428C359.196 239.758 359.178 240.057 359.14 240.324H353.222C353.269 241.028 353.498 241.594 353.911 242.02C354.323 242.447 354.829 242.66 355.429 242.66C356.291 242.66 356.9 242.25 357.256 241.428H358.986C358.751 242.239 358.325 242.906 357.706 243.429C357.097 243.941 356.338 244.197 355.429 244.197C354.688 244.197 354.023 244.01 353.433 243.637C352.851 243.253 352.392 242.719 352.055 242.036C351.727 241.343 351.563 240.543 351.563 239.636C351.563 238.729 351.722 237.934 352.041 237.251C352.369 236.558 352.823 236.024 353.404 235.651C353.995 235.278 354.67 235.091 355.429 235.091C356.16 235.091 356.811 235.272 357.383 235.635C357.955 235.998 358.4 236.51 358.719 237.171C359.037 237.822 359.196 238.574 359.196 239.428ZM357.524 238.852C357.514 238.179 357.303 237.641 356.891 237.235C356.479 236.83 355.968 236.627 355.359 236.627C354.806 236.627 354.332 236.83 353.939 237.235C353.545 237.63 353.311 238.169 353.236 238.852H357.524ZM364.682 235.091C365.291 235.091 365.835 235.235 366.313 235.523C366.8 235.811 367.18 236.238 367.452 236.803C367.723 237.369 367.859 238.051 367.859 238.852V244.053H366.271V239.124C366.271 238.334 366.097 237.731 365.75 237.315C365.404 236.889 364.93 236.675 364.331 236.675C363.731 236.675 363.253 236.889 362.897 237.315C362.55 237.731 362.376 238.334 362.376 239.124V244.053H360.774V235.235H362.376V236.243C362.639 235.88 362.972 235.598 363.375 235.395C363.787 235.192 364.223 235.091 364.682 235.091ZM371.773 236.723V241.604C371.773 241.935 371.839 242.175 371.97 242.324C372.111 242.463 372.345 242.532 372.673 242.532H373.657V244.053H372.392C371.67 244.053 371.117 243.861 370.733 243.477C370.349 243.093 370.157 242.468 370.157 241.604V236.723H369.243V235.235H370.157V233.042H371.773V235.235H373.657V236.723H371.773ZM380.389 236.547C380.661 236.12 381.031 235.774 381.499 235.507C381.977 235.23 382.507 235.091 383.088 235.091C383.772 235.091 384.391 235.278 384.944 235.651C385.497 236.024 385.932 236.558 386.251 237.251C386.57 237.934 386.729 238.718 386.729 239.604C386.729 240.489 386.57 241.284 386.251 241.988C385.932 242.682 385.492 243.226 384.93 243.621C384.377 244.005 383.763 244.197 383.088 244.197C382.488 244.197 381.954 244.063 381.485 243.797C381.026 243.53 380.661 243.189 380.389 242.772V244.053H378.786V232.21H380.389V236.547ZM385.098 239.604C385.098 238.996 384.986 238.473 384.761 238.035C384.545 237.587 384.255 237.251 383.889 237.027C383.533 236.793 383.149 236.675 382.736 236.675C382.333 236.675 381.949 236.793 381.584 237.027C381.228 237.262 380.937 237.603 380.712 238.051C380.497 238.5 380.389 239.028 380.389 239.636C380.389 240.244 380.497 240.777 380.712 241.236C380.937 241.684 381.228 242.026 381.584 242.26C381.949 242.495 382.333 242.612 382.736 242.612C383.149 242.612 383.533 242.495 383.889 242.26C384.255 242.015 384.545 241.663 384.761 241.204C384.986 240.745 385.098 240.212 385.098 239.604ZM389.13 234.067C388.839 234.067 388.595 233.955 388.399 233.731C388.202 233.506 388.103 233.229 388.103 232.898C388.103 232.568 388.202 232.29 388.399 232.066C388.595 231.842 388.839 231.73 389.13 231.73C389.411 231.73 389.65 231.842 389.847 232.066C390.043 232.29 390.142 232.568 390.142 232.898C390.142 233.229 390.043 233.506 389.847 233.731C389.65 233.955 389.411 234.067 389.13 234.067ZM389.917 235.235V244.053H388.314V235.235H389.917ZM393.624 232.21V244.053H392.021V232.21H393.624ZM397.33 232.21V244.053H395.729V232.21H397.33Z" fill="black"/>
<path d="M468.13 233.955H463.42V237.139C463.62 236.841 463.909 236.59 464.291 236.387C464.686 236.184 465.104 236.083 465.545 236.083C466.33 236.083 466.97 236.275 467.454 236.659C467.954 237.043 468.306 237.529 468.509 238.115C468.727 238.702 468.833 239.321 468.833 239.972C468.833 240.761 468.696 241.466 468.427 242.084C468.165 242.692 467.767 243.173 467.232 243.525C466.705 243.877 466.06 244.053 465.291 244.053C464.268 244.053 463.448 243.765 462.831 243.189C462.214 242.612 461.843 241.85 461.722 240.9H463.28C463.385 241.402 463.612 241.802 463.971 242.1C464.326 242.388 464.772 242.532 465.307 242.532C465.97 242.532 466.466 242.303 466.794 241.844C467.134 241.386 467.302 240.777 467.302 240.02C467.302 239.252 467.134 238.665 466.794 238.26C466.459 237.843 465.963 237.635 465.307 237.635C464.846 237.635 464.455 237.769 464.139 238.035C463.83 238.292 463.604 238.644 463.463 239.092H461.944V232.354H468.13V233.955ZM470.5 238.067C470.5 236.222 470.774 234.781 471.317 233.747C471.871 232.701 472.816 232.178 474.156 232.178C475.499 232.178 476.44 232.701 476.983 233.747C477.537 234.781 477.811 236.222 477.811 238.067C477.811 239.935 477.537 241.396 476.983 242.452C476.44 243.498 475.499 244.021 474.156 244.021C472.816 244.021 471.871 243.498 471.317 242.452C470.774 241.396 470.5 239.935 470.5 238.067ZM476.237 238.067C476.237 237.203 476.186 236.472 476.085 235.875C475.991 235.278 475.792 234.792 475.491 234.419C475.194 234.035 474.749 233.843 474.156 233.843C473.566 233.843 473.121 234.035 472.82 234.419C472.523 234.792 472.32 235.278 472.219 235.875C472.125 236.472 472.078 237.203 472.078 238.067C472.078 238.964 472.125 239.716 472.219 240.324C472.312 240.932 472.508 241.423 472.808 241.796C473.117 242.17 473.566 242.356 474.156 242.356C474.749 242.356 475.194 242.17 475.491 241.796C475.803 241.423 476.003 240.932 476.096 240.324C476.19 239.716 476.237 238.964 476.237 238.067ZM479.509 238.067C479.509 236.222 479.779 234.781 480.322 233.747C480.876 232.701 481.821 232.178 483.165 232.178C484.504 232.178 485.445 232.701 485.988 233.747C486.542 234.781 486.82 236.222 486.82 238.067C486.82 239.935 486.542 241.396 485.988 242.452C485.445 243.498 484.504 244.021 483.165 244.021C481.821 244.021 480.876 243.498 480.322 242.452C479.779 241.396 479.509 239.935 479.509 238.067ZM485.242 238.067C485.242 237.203 485.191 236.472 485.09 235.875C484.996 235.278 484.797 234.792 484.5 234.419C484.199 234.035 483.754 233.843 483.165 233.843C482.571 233.843 482.126 234.035 481.829 234.419C481.528 234.792 481.325 235.278 481.224 235.875C481.13 236.472 481.083 237.203 481.083 238.067C481.083 238.964 481.13 239.716 481.224 240.324C481.317 240.932 481.513 241.423 481.813 241.796C482.122 242.17 482.571 242.356 483.165 242.356C483.754 242.356 484.199 242.17 484.5 241.796C484.809 241.423 485.008 240.932 485.102 240.324C485.195 239.716 485.242 238.964 485.242 238.067Z" fill="black"/>
<path d="M333.633 267.687L331.229 276.504H329.542L327.981 269.991L326.421 276.504H324.734L322.316 267.687H323.946L325.563 274.776L327.208 267.687H328.881L330.455 274.744L332.058 267.687H333.633ZM334.296 272.056C334.296 271.17 334.455 270.386 334.774 269.703C335.102 269.02 335.543 268.492 336.096 268.119C336.658 267.735 337.277 267.543 337.951 267.543C338.561 267.543 339.09 267.681 339.54 267.959C339.999 268.225 340.365 268.561 340.637 268.967V267.687H342.253V276.504H340.637V275.192C340.365 275.608 339.995 275.955 339.526 276.232C339.057 276.51 338.523 276.648 337.923 276.648C337.258 276.648 336.649 276.456 336.096 276.072C335.543 275.678 335.102 275.134 334.774 274.44C334.455 273.736 334.296 272.941 334.296 272.056ZM340.637 272.088C340.637 271.479 340.524 270.951 340.299 270.503C340.084 270.055 339.798 269.714 339.442 269.479C339.085 269.244 338.701 269.127 338.289 269.127C337.876 269.127 337.492 269.244 337.136 269.479C336.78 269.703 336.489 270.039 336.264 270.487C336.049 270.925 335.941 271.447 335.941 272.056C335.941 272.664 336.049 273.197 336.264 273.656C336.489 274.115 336.78 274.467 337.136 274.712C337.501 274.947 337.886 275.064 338.289 275.064C338.701 275.064 339.085 274.947 339.442 274.712C339.798 274.477 340.084 274.136 340.299 273.688C340.524 273.229 340.637 272.696 340.637 272.088ZM346.228 269.175V274.056C346.228 274.387 346.293 274.627 346.425 274.776C346.565 274.915 346.8 274.984 347.128 274.984H348.112V276.504H346.846C346.125 276.504 345.572 276.312 345.188 275.928C344.803 275.544 344.611 274.92 344.611 274.056V269.175H343.697V267.687H344.611V265.494H346.228V267.687H348.112V269.175H346.228ZM349.055 272.088C349.055 271.181 349.214 270.386 349.533 269.703C349.861 269.01 350.311 268.476 350.882 268.103C351.454 267.729 352.11 267.543 352.851 267.543C353.788 267.543 354.561 267.799 355.17 268.311C355.789 268.812 356.206 269.532 356.421 270.471H354.692C354.552 270.034 354.327 269.692 354.017 269.447C353.708 269.202 353.319 269.079 352.851 269.079C352.194 269.079 351.67 269.346 351.276 269.879C350.892 270.402 350.7 271.138 350.7 272.088C350.7 273.037 350.892 273.779 351.276 274.312C351.67 274.845 352.194 275.112 352.851 275.112C353.778 275.112 354.392 274.648 354.692 273.72H356.421C356.196 274.616 355.775 275.331 355.156 275.864C354.538 276.387 353.769 276.648 352.851 276.648C352.11 276.648 351.454 276.462 350.882 276.088C350.311 275.704 349.861 275.171 349.533 274.488C349.214 273.795 349.055 272.994 349.055 272.088ZM362.025 267.543C362.616 267.543 363.14 267.687 363.6 267.975C364.068 268.263 364.434 268.689 364.696 269.255C364.968 269.82 365.104 270.503 365.104 271.303V276.504H363.515V271.575C363.515 270.786 363.342 270.183 362.995 269.767C362.648 269.34 362.175 269.127 361.575 269.127C360.975 269.127 360.498 269.34 360.141 269.767C359.795 270.183 359.621 270.786 359.621 271.575V276.504H358.019V264.662H359.621V268.711C359.893 268.337 360.235 268.049 360.647 267.847C361.069 267.644 361.528 267.543 362.025 267.543ZM376.525 267.543C377.134 267.543 377.678 267.687 378.156 267.975C378.643 268.263 379.023 268.689 379.294 269.255C379.576 269.82 379.716 270.503 379.716 271.303V276.504H378.128V271.575C378.128 270.786 377.954 270.183 377.607 269.767C377.261 269.34 376.787 269.127 376.187 269.127C375.588 269.127 375.11 269.34 374.754 269.767C374.407 270.183 374.233 270.786 374.233 271.575V276.504H372.645V271.575C372.645 270.786 372.471 270.183 372.125 269.767C371.778 269.34 371.305 269.127 370.705 269.127C370.105 269.127 369.627 269.34 369.271 269.767C368.924 270.183 368.751 270.786 368.751 271.575V276.504H367.148V267.687H368.751V268.695C369.013 268.332 369.346 268.049 369.749 267.847C370.152 267.644 370.583 267.543 371.042 267.543C371.661 267.543 372.214 267.692 372.701 267.991C373.188 268.289 373.563 268.721 373.826 269.287C374.06 268.753 374.425 268.332 374.922 268.023C375.419 267.703 375.953 267.543 376.525 267.543ZM388.855 271.879C388.855 272.21 388.837 272.509 388.799 272.776H382.88C382.927 273.48 383.157 274.045 383.569 274.472C383.982 274.899 384.488 275.112 385.088 275.112C385.95 275.112 386.559 274.701 386.915 273.88H388.644C388.41 274.691 387.984 275.358 387.365 275.88C386.756 276.392 385.997 276.648 385.088 276.648C384.347 276.648 383.682 276.462 383.091 276.088C382.51 275.704 382.051 275.171 381.714 274.488C381.386 273.795 381.222 272.994 381.222 272.088C381.222 271.181 381.381 270.386 381.7 269.703C382.028 269.01 382.482 268.476 383.063 268.103C383.654 267.729 384.328 267.543 385.088 267.543C385.819 267.543 386.47 267.724 387.042 268.087C387.613 268.449 388.059 268.961 388.377 269.623C388.696 270.274 388.855 271.026 388.855 271.879ZM387.182 271.303C387.173 270.631 386.962 270.092 386.55 269.687C386.137 269.282 385.627 269.079 385.017 269.079C384.464 269.079 383.991 269.282 383.597 269.687C383.204 270.082 382.969 270.621 382.894 271.303H387.182ZM394.34 267.543C394.948 267.543 395.495 267.687 395.972 267.975C396.46 268.263 396.838 268.689 397.112 269.255C397.381 269.82 397.518 270.503 397.518 271.303V276.504H395.929V271.575C395.929 270.786 395.757 270.183 395.409 269.767C395.062 269.34 394.589 269.127 393.989 269.127C393.389 269.127 392.911 269.34 392.555 269.767C392.208 270.183 392.035 270.786 392.035 271.575V276.504H390.432V267.687H392.035V268.695C392.297 268.332 392.63 268.049 393.033 267.847C393.445 267.644 393.881 267.543 394.34 267.543Z" fill="black"/>
<path d="M459.125 268.629H454.415V271.813C454.611 271.515 454.903 271.264 455.286 271.061C455.681 270.859 456.098 270.757 456.536 270.757C457.325 270.757 457.961 270.949 458.449 271.333C458.945 271.717 459.297 272.203 459.504 272.79C459.718 273.376 459.828 273.995 459.828 274.646C459.828 275.436 459.691 276.14 459.418 276.758C459.156 277.367 458.758 277.847 458.223 278.199C457.699 278.551 457.051 278.727 456.286 278.727C455.263 278.727 454.443 278.439 453.826 277.863C453.205 277.287 452.834 276.524 452.713 275.574H454.275C454.376 276.076 454.607 276.476 454.962 276.774C455.317 277.063 455.763 277.207 456.298 277.207C456.965 277.207 457.461 276.977 457.789 276.518C458.125 276.06 458.293 275.452 458.293 274.694C458.293 273.926 458.125 273.339 457.789 272.934C457.45 272.518 456.954 272.31 456.298 272.31C455.841 272.31 455.45 272.443 455.13 272.71C454.821 272.966 454.599 273.318 454.458 273.766H452.939V267.028H459.125V268.629ZM461.495 272.742C461.495 270.896 461.769 269.456 462.311 268.421C462.866 267.375 463.811 266.852 465.15 266.852C466.49 266.852 467.435 267.375 467.978 268.421C468.528 269.456 468.806 270.896 468.806 272.742C468.806 274.609 468.528 276.07 467.978 277.127C467.435 278.172 466.49 278.695 465.15 278.695C463.811 278.695 462.866 278.172 462.311 277.127C461.769 276.07 461.495 274.609 461.495 272.742ZM467.232 272.742C467.232 271.877 467.181 271.147 467.076 270.549C466.982 269.952 466.787 269.466 466.486 269.093C466.185 268.709 465.74 268.517 465.15 268.517C464.561 268.517 464.116 268.709 463.815 269.093C463.514 269.466 463.315 269.952 463.21 270.549C463.116 271.147 463.069 271.877 463.069 272.742C463.069 273.638 463.116 274.39 463.21 274.998C463.303 275.606 463.502 276.097 463.803 276.47C464.112 276.844 464.561 277.031 465.15 277.031C465.74 277.031 466.185 276.844 466.486 276.47C466.794 276.097 466.998 275.606 467.091 274.998C467.185 274.39 467.232 273.638 467.232 272.742ZM470.5 272.742C470.5 270.896 470.774 269.456 471.317 268.421C471.871 267.375 472.816 266.852 474.156 266.852C475.499 266.852 476.44 267.375 476.983 268.421C477.537 269.456 477.811 270.896 477.811 272.742C477.811 274.609 477.537 276.07 476.983 277.127C476.44 278.172 475.499 278.695 474.156 278.695C472.816 278.695 471.871 278.172 471.317 277.127C470.774 276.07 470.5 274.609 470.5 272.742ZM476.237 272.742C476.237 271.877 476.186 271.147 476.085 270.549C475.991 269.952 475.792 269.466 475.491 269.093C475.194 268.709 474.749 268.517 474.156 268.517C473.566 268.517 473.121 268.709 472.82 269.093C472.523 269.466 472.32 269.952 472.219 270.549C472.125 271.147 472.078 271.877 472.078 272.742C472.078 273.638 472.125 274.39 472.219 274.998C472.312 275.606 472.508 276.097 472.808 276.47C473.117 276.844 473.566 277.031 474.156 277.031C474.749 277.031 475.194 276.844 475.491 276.47C475.804 276.097 476.003 275.606 476.096 274.998C476.19 274.39 476.237 273.638 476.237 272.742ZM479.51 272.742C479.51 270.896 479.779 269.456 480.322 268.421C480.876 267.375 481.821 266.852 483.165 266.852C484.504 266.852 485.445 267.375 485.988 268.421C486.543 269.456 486.82 270.896 486.82 272.742C486.82 274.609 486.543 276.07 485.988 277.127C485.445 278.172 484.504 278.695 483.165 278.695C481.821 278.695 480.876 278.172 480.322 277.127C479.779 276.07 479.51 274.609 479.51 272.742ZM485.242 272.742C485.242 271.877 485.191 271.147 485.09 270.549C484.996 269.952 484.797 269.466 484.5 269.093C484.2 268.709 483.754 268.517 483.165 268.517C482.571 268.517 482.126 268.709 481.829 269.093C481.528 269.466 481.325 269.952 481.224 270.549C481.13 271.147 481.083 271.877 481.083 272.742C481.083 273.638 481.13 274.39 481.224 274.998C481.318 275.606 481.513 276.097 481.814 276.47C482.122 276.844 482.571 277.031 483.165 277.031C483.754 277.031 484.2 276.844 484.5 276.47C484.809 276.097 485.008 275.606 485.102 274.998C485.195 274.39 485.242 273.638 485.242 272.742ZM488.515 272.742C488.515 270.896 488.784 269.456 489.331 268.421C489.882 267.375 490.83 266.852 492.17 266.852C493.509 266.852 494.451 267.375 494.993 268.421C495.548 269.456 495.825 270.896 495.825 272.742C495.825 274.609 495.548 276.07 494.993 277.127C494.451 278.172 493.509 278.695 492.17 278.695C490.83 278.695 489.882 278.172 489.331 277.127C488.784 276.07 488.515 274.609 488.515 272.742ZM494.251 272.742C494.251 271.877 494.197 271.147 494.095 270.549C494.001 269.952 493.806 269.466 493.505 269.093C493.205 268.709 492.76 268.517 492.17 268.517C491.58 268.517 491.135 268.709 490.834 269.093C490.534 269.466 490.331 269.952 490.229 270.549C490.135 271.147 490.088 271.877 490.088 272.742C490.088 273.638 490.135 274.39 490.229 274.998C490.323 275.606 490.518 276.097 490.819 276.47C491.127 276.844 491.58 277.031 492.17 277.031C492.76 277.031 493.205 276.844 493.505 276.47C493.814 276.097 494.017 275.606 494.111 274.998C494.204 274.39 494.251 273.638 494.251 272.742Z" fill="black"/>
<path d="M513.617 426.315H319.923C315.61 426.315 312.113 430.295 312.113 435.205V461.433C312.113 466.344 315.61 470.324 319.923 470.324H513.617C517.93 470.324 521.427 466.344 521.427 461.433V435.205C521.427 430.295 517.93 426.315 513.617 426.315Z" fill="#EA4B3B"/>
<path d="M348.464 440.782V442.361H344.902V455.654H343.197V442.361H339.616V440.782H348.464ZM355.044 455.845C354.081 455.845 353.207 455.596 352.419 455.099C351.645 454.601 351.032 453.898 350.582 452.987C350.145 452.062 349.926 450.995 349.926 449.786C349.926 448.59 350.151 447.537 350.601 446.63C351.063 445.705 351.688 444.999 352.476 444.516C353.263 444.018 354.144 443.769 355.119 443.769C356.093 443.769 356.974 444.018 357.762 444.516C358.549 444.999 359.167 445.697 359.617 446.608C360.08 447.519 360.311 448.577 360.311 449.786C360.311 450.995 360.073 452.062 359.598 452.987C359.136 453.898 358.505 454.601 357.705 455.099C356.906 455.596 356.018 455.845 355.044 455.845ZM355.044 454.138C355.656 454.138 356.231 453.974 356.768 453.649C357.305 453.32 357.737 452.831 358.061 452.178C358.399 451.52 358.568 450.724 358.568 449.786C358.568 448.848 358.405 448.053 358.08 447.395C357.755 446.741 357.33 446.257 356.806 445.945C356.281 445.616 355.712 445.456 355.1 445.456C354.475 445.456 353.9 445.616 353.375 445.945C352.863 446.257 352.451 446.741 352.138 447.395C351.826 448.053 351.67 448.848 351.67 449.786C351.67 450.738 351.82 451.542 352.119 452.196C352.432 452.854 352.844 453.343 353.357 453.672C353.869 453.983 354.431 454.138 355.044 454.138ZM364.634 445.563V452.454C364.634 453.023 364.74 453.427 364.953 453.672C365.165 453.898 365.534 454.009 366.059 454.009H367.315V455.654H365.778C364.828 455.654 364.116 455.405 363.641 454.907C363.166 454.41 362.928 453.592 362.928 452.454V445.563H361.597V443.961H362.928V441.016H364.634V443.961H367.315V445.563H364.634ZM368.744 449.764C368.744 448.568 368.956 447.524 369.381 446.63C369.806 445.719 370.387 445.012 371.124 444.516C371.874 444.018 372.705 443.769 373.617 443.769C374.517 443.769 375.298 443.989 375.96 444.43C376.623 444.87 377.116 445.425 377.441 446.097V443.961H379.166V455.654H377.441V453.476C377.104 454.161 376.598 454.73 375.923 455.183C375.261 455.628 374.486 455.845 373.599 455.845C372.686 455.845 371.862 455.592 371.124 455.076C370.387 454.565 369.806 453.849 369.381 452.925C368.956 452 368.744 450.947 368.744 449.764ZM377.441 449.786C377.441 448.906 377.285 448.137 376.973 447.484C376.66 446.826 376.235 446.328 375.698 445.99C375.173 445.634 374.592 445.456 373.955 445.456C373.318 445.456 372.736 445.625 372.212 445.968C371.687 446.31 371.268 446.808 370.956 447.461C370.643 448.115 370.487 448.884 370.487 449.764C370.487 450.662 370.643 451.444 370.956 452.111C371.268 452.765 371.687 453.272 372.212 453.627C372.736 453.969 373.318 454.138 373.955 454.138C374.592 454.138 375.173 453.969 375.698 453.627C376.235 453.272 376.66 452.765 376.973 452.111C377.285 451.444 377.441 450.666 377.441 449.786ZM383.754 439.864V455.654H382.049V439.864H383.754Z" fill="white"/>
<path d="M459.597 445.394L455.688 455.654H454.072L458.02 445.59H452.818V444.036H459.597V445.394ZM467.575 445.554H462.866V448.742C463.061 448.444 463.354 448.191 463.737 447.99C464.131 447.786 464.549 447.684 464.986 447.684C465.775 447.684 466.412 447.875 466.9 448.262C467.396 448.644 467.747 449.129 467.954 449.715C468.169 450.302 468.278 450.924 468.278 451.573C468.278 452.365 468.142 453.067 467.868 453.685C467.607 454.294 467.208 454.774 466.673 455.125C466.15 455.477 465.502 455.654 464.736 455.654C463.713 455.654 462.893 455.365 462.276 454.792C461.655 454.214 461.284 453.449 461.163 452.503H462.725C462.827 453.005 463.057 453.405 463.413 453.703C463.768 453.992 464.213 454.134 464.748 454.134C465.416 454.134 465.912 453.903 466.24 453.445C466.576 452.987 466.744 452.378 466.744 451.622C466.744 450.853 466.576 450.267 466.24 449.862C465.9 449.444 465.404 449.235 464.748 449.235C464.291 449.235 463.901 449.369 463.581 449.635C463.272 449.893 463.049 450.244 462.909 450.693H461.39V443.956H467.575V445.554ZM476.553 445.554H471.844V448.742C472.039 448.444 472.332 448.191 472.715 447.99C473.109 447.786 473.527 447.684 473.968 447.684C474.753 447.684 475.39 447.875 475.878 448.262C476.374 448.644 476.725 449.129 476.932 449.715C477.147 450.302 477.256 450.924 477.256 451.573C477.256 452.365 477.12 453.067 476.85 453.685C476.585 454.294 476.186 454.774 475.655 455.125C475.128 455.477 474.484 455.654 473.714 455.654C472.691 455.654 471.871 455.365 471.254 454.792C470.633 454.214 470.266 453.449 470.141 452.503H471.703C471.805 453.005 472.035 453.405 472.391 453.703C472.75 453.992 473.195 454.134 473.726 454.134C474.394 454.134 474.89 453.903 475.218 453.445C475.554 452.987 475.725 452.378 475.725 451.622C475.725 450.853 475.554 450.267 475.218 449.862C474.882 449.444 474.382 449.235 473.726 449.235C473.269 449.235 472.879 449.369 472.562 449.635C472.25 449.893 472.027 450.244 471.887 450.693H470.368V443.956H476.553V445.554ZM478.924 449.671C478.924 447.822 479.197 446.381 479.74 445.35C480.294 444.303 481.239 443.78 482.579 443.78C483.918 443.78 484.863 444.303 485.406 445.35C485.957 446.381 486.234 447.822 486.234 449.671C486.234 451.538 485.957 452.996 485.406 454.054C484.863 455.099 483.918 455.623 482.579 455.623C481.239 455.623 480.294 455.099 479.74 454.054C479.197 452.996 478.924 451.538 478.924 449.671ZM484.66 449.671C484.66 448.804 484.61 448.075 484.504 447.475C484.41 446.879 484.215 446.395 483.914 446.021C483.614 445.634 483.169 445.443 482.579 445.443C481.989 445.443 481.544 445.634 481.243 446.021C480.943 446.395 480.744 446.879 480.638 447.475C480.544 448.075 480.497 448.804 480.497 449.671C480.497 450.564 480.544 451.316 480.638 451.925C480.732 452.534 480.931 453.023 481.232 453.396C481.54 453.769 481.989 453.956 482.579 453.956C483.169 453.956 483.614 453.769 483.914 453.396C484.223 453.023 484.426 452.534 484.52 451.925C484.613 451.316 484.66 450.564 484.66 449.671ZM487.929 449.671C487.929 447.822 488.202 446.381 488.745 445.35C489.3 444.303 490.245 443.78 491.584 443.78C492.927 443.78 493.869 444.303 494.411 445.35C494.966 446.381 495.239 447.822 495.239 449.671C495.239 451.538 494.966 452.996 494.411 454.054C493.869 455.099 492.927 455.623 491.584 455.623C490.245 455.623 489.3 455.099 488.745 454.054C488.202 452.996 487.929 451.538 487.929 449.671ZM493.666 449.671C493.666 448.804 493.615 448.075 493.513 447.475C493.42 446.879 493.22 446.395 492.92 446.021C492.623 445.634 492.178 445.443 491.584 445.443C490.994 445.443 490.549 445.634 490.249 446.021C489.952 446.395 489.749 446.879 489.647 447.475C489.553 448.075 489.507 448.804 489.507 449.671C489.507 450.564 489.553 451.316 489.647 451.925C489.741 452.534 489.936 453.023 490.237 453.396C490.545 453.769 490.994 453.956 491.584 453.956C492.178 453.956 492.623 453.769 492.92 453.396C493.232 453.023 493.431 452.534 493.525 451.925C493.619 451.316 493.666 450.564 493.666 449.671Z" fill="white"/>
<path d="M229.325 0H23.135C12.567 0 4 9.75236 4 21.7825V491.218C4 503.248 12.567 513 23.135 513H229.325C239.893 513 248.46 503.248 248.46 491.218V21.7825C248.46 9.75236 239.893 0 229.325 0Z" fill="#EA4B3B"/>
<path d="M228.934 0H23.5255C12.7419 0 4 9.95138 4 22.227V120.915C4 133.191 12.7419 143.142 23.5255 143.142H228.934C239.718 143.142 248.46 133.191 248.46 120.915V22.227C248.46 9.95138 239.718 0 228.934 0Z" fill="#EA4B3B"/>
<path d="M76.1884 40.229V55.1229H73.5642V45.4354L70.059 55.1229H68.072L64.5481 45.4354V55.1229H61.9238V40.229H64.9042L69.0655 51.3034L73.2268 40.229H76.1884ZM78.1078 49.1696C78.1078 47.9747 78.314 46.9149 78.7263 45.9902C79.1516 45.0656 79.7202 44.3543 80.4325 43.8564C81.1573 43.3586 81.9633 43.1096 82.8505 43.1096C83.6253 43.1096 84.3001 43.2874 84.8749 43.6431C85.4623 43.9987 85.9309 44.4468 86.2808 44.9874V43.3017H88.9238V55.1229H86.2808V53.3945C85.9434 53.9493 85.4748 54.4116 84.8749 54.7815C84.2876 55.1371 83.6066 55.3149 82.8318 55.3149C81.957 55.3149 81.1573 55.0589 80.4325 54.5468C79.7202 54.0346 79.1516 53.3163 78.7263 52.3916C78.314 51.4528 78.1078 50.3787 78.1078 49.1696ZM86.2808 49.2123C86.2808 48.4868 86.1558 47.868 85.9059 47.3559C85.656 46.8295 85.3186 46.4312 84.8937 46.1609C84.4688 45.8764 84.0127 45.7342 83.5253 45.7342C83.038 45.7342 82.5881 45.8693 82.1757 46.1396C81.7633 46.4099 81.4259 46.8082 81.1635 47.3345C80.9136 47.8466 80.7886 48.4583 80.7886 49.1696C80.7886 49.8809 80.9136 50.5068 81.1635 51.0473C81.4259 51.5737 81.7633 51.9791 82.1757 52.2636C82.6006 52.5481 83.0505 52.6904 83.5253 52.6904C84.0127 52.6904 84.4688 52.5552 84.8937 52.2849C85.3186 52.0004 85.656 51.6021 85.9059 51.09C86.1558 50.5637 86.2808 49.9378 86.2808 49.2123ZM92.8175 41.8933C92.3552 41.8933 91.9678 41.7298 91.6554 41.4026C91.3555 41.0612 91.2055 40.6415 91.2055 40.1436C91.2055 39.6457 91.3555 39.2332 91.6554 38.906C91.9678 38.5646 92.3552 38.3939 92.8175 38.3939C93.2799 38.3939 93.661 38.5646 93.961 38.906C94.2734 39.2332 94.4296 39.6457 94.4296 40.1436C94.4296 40.6415 94.2734 41.0612 93.961 41.4026C93.661 41.7298 93.2799 41.8933 92.8175 41.8933ZM94.1109 43.3017V55.1229H91.4867V43.3017H94.1109ZM102.458 43.131C103.695 43.131 104.695 43.579 105.457 44.4752C106.219 45.3572 106.601 46.5948 106.601 48.188V55.1229H103.976V48.5935C103.976 47.6546 103.77 46.9362 103.358 46.4383C102.945 45.9262 102.383 45.6702 101.671 45.6702C100.946 45.6702 100.371 45.9262 99.9463 46.4383C99.5339 46.9362 99.3277 47.6546 99.3277 48.5935V55.1229H96.7035V43.3017H99.3277V44.774C99.6776 44.2619 100.121 43.8636 100.659 43.579C101.208 43.2803 101.808 43.131 102.458 43.131ZM112.152 45.7555V51.4741C112.152 51.8724 112.233 52.164 112.395 52.3489C112.57 52.5197 112.858 52.605 113.258 52.605H114.476V55.1229H112.827C110.615 55.1229 109.509 53.8995 109.509 51.4528V45.7555H108.272V43.3017H109.509V40.3784H112.152V43.3017H114.476V45.7555H112.152ZM126.017 48.9562C126.017 49.383 125.992 49.7671 125.942 50.1085H118.35C118.413 50.962 118.675 51.6306 119.138 52.1142C119.6 52.5979 120.169 52.8397 120.843 52.8397C121.818 52.8397 122.512 52.3632 122.924 51.4101H125.754C125.454 52.5481 124.88 53.487 124.03 54.2267C123.18 54.9522 122.137 55.3149 120.9 55.3149C119.9 55.3149 119 55.066 118.2 54.5681C117.413 54.056 116.795 53.3376 116.345 52.413C115.907 51.4883 115.689 50.4214 115.689 49.2123C115.689 47.9889 115.907 46.9149 116.345 45.9902C116.782 45.0656 117.394 44.3543 118.182 43.8564C118.969 43.3586 119.875 43.1096 120.9 43.1096C121.887 43.1096 122.768 43.3514 123.543 43.8351C124.33 44.3188 124.936 45.0087 125.361 45.9049C125.798 46.7869 126.017 47.804 126.017 48.9562ZM123.299 48.1027C123.286 47.3345 123.043 46.7228 122.568 46.2676C122.093 45.7982 121.512 45.5635 120.825 45.5635C120.175 45.5635 119.625 45.7911 119.175 46.2463C118.738 46.6873 118.469 47.3061 118.369 48.1027H123.299ZM133.687 43.131C134.924 43.131 135.924 43.579 136.686 44.4752C137.448 45.3572 137.829 46.5948 137.829 48.188V55.1229H135.205V48.5935C135.205 47.6546 134.999 46.9362 134.587 46.4383C134.174 45.9262 133.612 45.6702 132.9 45.6702C132.175 45.6702 131.6 45.9262 131.175 46.4383C130.763 46.9362 130.557 47.6546 130.557 48.5935V55.1229H127.932V43.3017H130.557V44.774C130.906 44.2619 131.35 43.8636 131.887 43.579C132.437 43.2803 133.037 43.131 133.687 43.131ZM139.65 49.1696C139.65 47.9747 139.856 46.9149 140.269 45.9902C140.693 45.0656 141.262 44.3543 141.974 43.8564C142.699 43.3586 143.505 43.1096 144.392 43.1096C145.167 43.1096 145.842 43.2874 146.417 43.6431C147.004 43.9987 147.473 44.4468 147.823 44.9874V43.3017H150.466V55.1229H147.823V53.3945C147.485 53.9493 147.017 54.4116 146.417 54.7815C145.829 55.1371 145.148 55.3149 144.374 55.3149C143.499 55.3149 142.699 55.0589 141.974 54.5468C141.262 54.0346 140.693 53.3163 140.269 52.3916C139.856 51.4528 139.65 50.3787 139.65 49.1696ZM147.823 49.2123C147.823 48.4868 147.698 47.868 147.448 47.3559C147.198 46.8295 146.86 46.4312 146.435 46.1609C146.011 45.8764 145.554 45.7342 145.067 45.7342C144.58 45.7342 144.13 45.8693 143.718 46.1396C143.305 46.4099 142.968 46.8082 142.705 47.3345C142.455 47.8466 142.33 48.4583 142.33 49.1696C142.33 49.8809 142.455 50.5068 142.705 51.0473C142.968 51.5737 143.305 51.9791 143.718 52.2636C144.142 52.5481 144.592 52.6904 145.067 52.6904C145.554 52.6904 146.011 52.5552 146.435 52.2849C146.86 52.0004 147.198 51.6021 147.448 51.09C147.698 50.5637 147.823 49.9378 147.823 49.2123ZM158.783 43.131C160.021 43.131 161.02 43.579 161.783 44.4752C162.545 45.3572 162.926 46.5948 162.926 48.188V55.1229H160.302V48.5935C160.302 47.6546 160.096 46.9362 159.683 46.4383C159.271 45.9262 158.708 45.6702 157.996 45.6702C157.271 45.6702 156.697 45.9262 156.272 46.4383C155.859 46.9362 155.653 47.6546 155.653 48.5935V55.1229H153.029V43.3017H155.653V44.774C156.003 44.2619 156.447 43.8636 156.984 43.579C157.534 43.2803 158.134 43.131 158.783 43.131ZM164.747 49.2123C164.747 47.9889 164.965 46.922 165.403 46.0116C165.84 45.0869 166.446 44.3757 167.221 43.8778C167.996 43.3657 168.883 43.1096 169.883 43.1096C171.17 43.1096 172.232 43.4795 173.069 44.2192C173.919 44.9447 174.487 45.9689 174.775 47.2919H171.944C171.794 46.7797 171.538 46.3814 171.176 46.0969C170.826 45.7982 170.389 45.6488 169.864 45.6488C169.114 45.6488 168.52 45.9618 168.083 46.5877C167.646 47.1994 167.427 48.0742 167.427 49.2123C167.427 50.3361 167.646 51.2109 168.083 51.8368C168.52 52.4485 169.114 52.7544 169.864 52.7544C170.926 52.7544 171.62 52.2138 171.944 51.1327H174.775C174.487 52.413 173.919 53.4301 173.069 54.184C172.219 54.938 171.157 55.3149 169.883 55.3149C168.883 55.3149 167.996 55.066 167.221 54.5681C166.446 54.056 165.84 53.3447 165.403 52.4343C164.965 51.5097 164.747 50.4356 164.747 49.2123ZM186.351 48.9562C186.351 49.383 186.326 49.7671 186.276 50.1085H178.684C178.747 50.962 179.009 51.6306 179.472 52.1142C179.934 52.5979 180.502 52.8397 181.177 52.8397C182.152 52.8397 182.846 52.3632 183.258 51.4101H186.088C185.788 52.5481 185.214 53.487 184.364 54.2267C183.514 54.9522 182.471 55.3149 181.234 55.3149C180.234 55.3149 179.334 55.066 178.534 54.5681C177.747 54.056 177.128 53.3376 176.679 52.413C176.241 51.4883 176.023 50.4214 176.023 49.2123C176.023 47.9889 176.241 46.9149 176.679 45.9902C177.116 45.0656 177.728 44.3543 178.516 43.8564C179.303 43.3586 180.209 43.1096 181.234 43.1096C182.221 43.1096 183.102 43.3514 183.876 43.8351C184.664 44.3188 185.27 45.0087 185.695 45.9049C186.132 46.7869 186.351 47.804 186.351 48.9562ZM183.633 48.1027C183.62 47.3345 183.377 46.7228 182.902 46.2676C182.427 45.7982 181.846 45.5635 181.159 45.5635C180.509 45.5635 179.959 45.7911 179.509 46.2463C179.072 46.6873 178.803 47.3061 178.703 48.1027H183.633ZM98.7689 87.1298H96.1447L90.2027 76.9089V87.1298H87.5784V72.2146H90.2027L96.1447 82.4568V72.2146H98.7689V87.1298ZM105.973 87.3219C104.974 87.3219 104.074 87.0729 103.274 86.575C102.474 86.0629 101.843 85.3445 101.381 84.4199C100.931 83.4953 100.706 82.4284 100.706 81.2192C100.706 80.0101 100.937 78.9432 101.4 78.0185C101.875 77.0939 102.518 76.3826 103.33 75.8847C104.143 75.3726 105.049 75.1165 106.048 75.1165C107.048 75.1165 107.954 75.3726 108.766 75.8847C109.579 76.3826 110.216 77.0939 110.678 78.0185C111.153 78.9432 111.391 80.0101 111.391 81.2192C111.391 82.4284 111.147 83.4953 110.66 84.4199C110.185 85.3445 109.535 86.0629 108.71 86.575C107.898 87.0729 106.986 87.3219 105.973 87.3219ZM105.973 84.7186C106.448 84.7186 106.892 84.5906 107.304 84.3345C107.729 84.0643 108.067 83.666 108.317 83.1396C108.566 82.6133 108.691 81.9731 108.691 81.2192C108.691 80.0954 108.429 79.2348 107.904 78.6373C107.392 78.0256 106.761 77.7198 106.011 77.7198C105.261 77.7198 104.63 78.0256 104.118 78.6373C103.618 79.2348 103.368 80.0954 103.368 81.2192C103.368 82.343 103.612 83.2107 104.099 83.8224C104.599 84.4199 105.224 84.7186 105.973 84.7186ZM116.371 77.7625V83.481C116.371 83.8793 116.452 84.171 116.615 84.3559C116.789 84.5266 117.077 84.6119 117.477 84.6119H118.695V87.1298H117.046C114.834 87.1298 113.728 85.9064 113.728 83.4597V77.7625H112.491V75.3086H113.728V72.3853H116.371V75.3086H118.695V77.7625H116.371ZM134.59 76.8449C134.59 77.6415 134.421 78.3884 134.084 79.0854C133.759 79.7825 133.24 80.3443 132.528 80.7711C131.828 81.1979 130.941 81.4112 129.866 81.4112H127.673V87.1298H125.049V72.2359H129.866C130.879 72.2359 131.741 72.4351 132.453 72.8334C133.166 73.2317 133.697 73.7794 134.047 74.4764C134.409 75.1734 134.59 75.963 134.59 76.8449ZM129.754 79.0001C130.479 79.0001 131.016 78.8151 131.366 78.4453C131.716 78.0612 131.891 77.5277 131.891 76.8449C131.891 75.3939 131.179 74.6685 129.754 74.6685H127.673V79.0001H129.754ZM135.778 81.1765C135.778 79.9816 135.985 78.9218 136.397 77.9972C136.822 77.0725 137.39 76.3613 138.103 75.8634C138.828 75.3655 139.634 75.1165 140.521 75.1165C141.296 75.1165 141.97 75.2944 142.545 75.65C143.133 76.0056 143.601 76.4537 143.951 76.9943V75.3086H146.594V87.1298H143.951V85.4014C143.614 85.9562 143.145 86.4186 142.545 86.7884C141.958 87.144 141.277 87.3219 140.502 87.3219C139.627 87.3219 138.828 87.0658 138.103 86.5537C137.39 86.0416 136.822 85.3232 136.397 84.3986C135.985 83.4597 135.778 82.3857 135.778 81.1765ZM143.951 81.2192C143.951 80.4937 143.826 79.8749 143.576 79.3628C143.326 78.8365 142.989 78.4382 142.564 78.1679C142.139 77.8834 141.683 77.7411 141.196 77.7411C140.708 77.7411 140.258 77.8763 139.846 78.1465C139.434 78.4168 139.096 78.8151 138.834 79.3415C138.584 79.8536 138.459 80.4653 138.459 81.1765C138.459 81.8878 138.584 82.5137 138.834 83.0543C139.096 83.5806 139.434 83.986 139.846 84.2705C140.271 84.555 140.721 84.6973 141.196 84.6973C141.683 84.6973 142.139 84.5622 142.564 84.2919C142.989 84.0074 143.326 83.6091 143.576 83.0969C143.826 82.5706 143.951 81.9447 143.951 81.2192ZM150.488 73.9003C150.025 73.9003 149.638 73.7367 149.326 73.4095C149.026 73.0681 148.876 72.6485 148.876 72.1506C148.876 71.6527 149.026 71.2402 149.326 70.913C149.638 70.5716 150.025 70.4009 150.488 70.4009C150.95 70.4009 151.331 70.5716 151.631 70.913C151.944 71.2402 152.1 71.6527 152.1 72.1506C152.1 72.6485 151.944 73.0681 151.631 73.4095C151.331 73.7367 150.95 73.9003 150.488 73.9003ZM151.781 75.3086V87.1298H149.157V75.3086H151.781ZM153.699 81.1765C153.699 79.9816 153.906 78.9218 154.318 77.9972C154.743 77.0725 155.318 76.3613 156.042 75.8634C156.767 75.3655 157.573 75.1165 158.46 75.1165C159.135 75.1165 159.779 75.2873 160.391 75.6287C161.003 75.9558 161.491 76.3968 161.853 76.9516V71.3397H164.515V87.1298H161.853V85.3801C161.528 85.9633 161.072 86.4328 160.485 86.7884C159.898 87.144 159.217 87.3219 158.442 87.3219C157.567 87.3219 156.767 87.0658 156.042 86.5537C155.318 86.0416 154.743 85.3232 154.318 84.3986C153.906 83.4597 153.699 82.3857 153.699 81.1765ZM161.872 81.2192C161.872 80.4937 161.747 79.8749 161.497 79.3628C161.247 78.8365 160.91 78.4382 160.485 78.1679C160.06 77.8834 159.604 77.7411 159.117 77.7411C158.629 77.7411 158.179 77.8763 157.767 78.1465C157.355 78.4168 157.017 78.8151 156.755 79.3415C156.505 79.8536 156.38 80.4653 156.38 81.1765C156.38 81.8878 156.505 82.5137 156.755 83.0543C157.017 83.5806 157.355 83.986 157.767 84.2705C158.192 84.555 158.642 84.6973 159.117 84.6973C159.604 84.6973 160.06 84.5622 160.485 84.2919C160.91 84.0074 161.247 83.6091 161.497 83.0969C161.747 82.5706 161.872 81.9447 161.872 81.2192Z" fill="white"/>
<path d="M232.449 416.09H20.0109C11.1683 416.09 4 424.25 4 434.316V494.774C4 504.84 11.1683 513 20.0109 513H232.449C241.291 513 248.46 504.84 248.46 494.774V434.316C248.46 424.25 241.291 416.09 232.449 416.09Z" fill="white"/>
<path d="M93.3818 457.841V461.576H97.7868V463.945H93.3818V467.892H98.3491V470.324H90.7576V455.41H98.3491V457.841H93.3818ZM106.469 470.324L104.333 466.652L102.439 470.324H99.6276L103.02 464.394L99.5901 458.504H102.552L104.67 462.153L106.582 458.504H109.394L105.982 464.394L109.431 470.324H106.469ZM113.481 460.211C113.818 459.669 114.28 459.22 114.868 458.864C115.468 458.495 116.149 458.313 116.911 458.313C117.798 458.313 118.598 458.562 119.31 459.059C120.035 459.557 120.604 460.269 121.016 461.193C121.441 462.1 121.653 463.163 121.653 464.372C121.653 465.581 121.441 466.652 121.016 467.595C120.604 468.519 120.035 469.235 119.31 469.746C118.598 470.262 117.798 470.515 116.911 470.515C116.149 470.515 115.474 470.337 114.886 469.982C114.312 469.626 113.843 469.177 113.481 468.639V475.956H110.856V458.504H113.481V460.211ZM118.973 464.372C118.973 463.66 118.842 463.047 118.579 462.536C118.329 462.011 117.992 461.611 117.567 461.34C117.155 461.069 116.705 460.935 116.217 460.935C115.742 460.935 115.293 461.078 114.868 461.362C114.455 461.633 114.118 462.029 113.856 462.558C113.606 463.083 113.481 463.7 113.481 464.412C113.481 465.123 113.606 465.745 113.856 466.27C114.118 466.794 114.455 467.203 114.868 467.488C115.293 467.755 115.742 467.892 116.217 467.892C116.705 467.892 117.155 467.75 117.567 467.466C117.992 467.181 118.329 466.777 118.579 466.248C118.842 465.723 118.973 465.096 118.973 464.372ZM133.214 464.158C133.214 464.585 133.189 464.967 133.139 465.31H125.547C125.61 466.163 125.872 466.83 126.335 467.315C126.797 467.799 127.366 468.039 128.04 468.039C129.015 468.039 129.709 467.564 130.121 466.612H132.952C132.652 467.75 132.077 468.688 131.227 469.426C130.377 470.155 129.334 470.515 128.097 470.515C127.097 470.515 126.197 470.266 125.397 469.768C124.61 469.257 123.992 468.537 123.542 467.612C123.104 466.688 122.886 465.621 122.886 464.412C122.886 463.189 123.104 462.118 123.542 461.193C123.979 460.269 124.591 459.557 125.379 459.059C126.166 458.562 127.072 458.313 128.097 458.313C129.084 458.313 129.965 458.553 130.74 459.037C131.527 459.522 132.133 460.211 132.558 461.104C132.995 461.989 133.214 463.007 133.214 464.158ZM130.496 463.305C130.483 462.536 130.24 461.922 129.765 461.469C129.29 460.998 128.709 460.767 128.022 460.767C127.372 460.767 126.822 460.993 126.372 461.447C125.935 461.887 125.666 462.509 125.566 463.305H130.496ZM140.884 458.33C142.121 458.33 143.121 458.779 143.883 459.677C144.645 460.558 145.027 461.798 145.027 463.389V470.324H142.402V463.794C142.402 462.856 142.196 462.136 141.784 461.638C141.371 461.127 140.809 460.873 140.097 460.873C139.372 460.873 138.797 461.127 138.372 461.638C137.96 462.136 137.754 462.856 137.754 463.794V470.324H135.129V458.504H137.754V459.975C138.104 459.464 138.547 459.064 139.084 458.779C139.634 458.482 140.234 458.33 140.884 458.33ZM151.496 470.515C150.646 470.515 149.884 470.346 149.209 470.004C148.534 469.648 147.997 469.173 147.597 468.573C147.209 467.977 146.997 467.315 146.96 466.59H149.603C149.653 467.043 149.846 467.421 150.184 467.719C150.533 468.021 150.965 468.168 151.477 468.168C151.977 468.168 152.364 468.057 152.639 467.826C152.927 467.599 153.07 467.31 153.07 466.955C153.07 466.568 152.895 466.283 152.545 466.101C152.208 465.901 151.664 465.688 150.915 465.461C150.14 465.247 149.503 465.025 149.003 464.798C148.515 464.572 148.09 464.221 147.728 463.754C147.378 463.283 147.203 462.651 147.203 461.851C147.203 461.198 147.366 460.602 147.691 460.06C148.028 459.522 148.503 459.095 149.115 458.779C149.74 458.468 150.471 458.313 151.308 458.313C152.545 458.313 153.533 458.668 154.27 459.38C155.007 460.073 155.413 461.02 155.488 462.216H152.977C152.939 461.745 152.764 461.376 152.452 461.104C152.152 460.82 151.746 460.678 151.233 460.678C150.758 460.678 150.39 460.78 150.127 460.98C149.877 461.175 149.752 461.456 149.752 461.811C149.752 462.207 149.927 462.514 150.277 462.727C150.627 462.927 151.171 463.131 151.908 463.345C152.658 463.558 153.276 463.781 153.764 464.007C154.251 464.234 154.67 464.59 155.02 465.074C155.382 465.545 155.57 466.172 155.582 466.955C155.582 467.635 155.413 468.248 155.076 468.786C154.751 469.328 154.276 469.755 153.651 470.066C153.039 470.369 152.32 470.515 151.496 470.515ZM167.39 464.158C167.39 464.585 167.365 464.967 167.315 465.31H159.723C159.785 466.163 160.048 466.83 160.51 467.315C160.973 467.799 161.541 468.039 162.216 468.039C163.191 468.039 163.884 467.564 164.297 466.612H167.127C166.827 467.75 166.252 468.688 165.403 469.426C164.553 470.155 163.509 470.515 162.272 470.515C161.273 470.515 160.373 470.266 159.573 469.768C158.786 469.257 158.167 468.537 157.717 467.612C157.28 466.688 157.061 465.621 157.061 464.412C157.061 463.189 157.28 462.118 157.717 461.193C158.155 460.269 158.767 459.557 159.554 459.059C160.342 458.562 161.248 458.313 162.272 458.313C163.259 458.313 164.14 458.553 164.915 459.037C165.703 459.522 166.309 460.211 166.733 461.104C167.171 461.989 167.39 463.007 167.39 464.158ZM164.672 463.305C164.659 462.536 164.415 461.922 163.941 461.469C163.466 460.998 162.885 460.767 162.197 460.767C161.547 460.767 160.998 460.993 160.548 461.447C160.11 461.887 159.842 462.509 159.742 463.305H164.672ZM173.279 470.515C172.429 470.515 171.667 470.346 170.992 470.004C170.317 469.648 169.78 469.173 169.38 468.573C168.993 467.977 168.78 467.315 168.743 466.59H171.386C171.436 467.043 171.629 467.421 171.967 467.719C172.317 468.021 172.748 468.168 173.26 468.168C173.76 468.168 174.147 468.057 174.422 467.826C174.71 467.599 174.853 467.31 174.853 466.955C174.853 466.568 174.678 466.283 174.329 466.101C173.991 465.901 173.448 465.688 172.698 465.461C171.923 465.247 171.286 465.025 170.786 464.798C170.298 464.572 169.874 464.221 169.511 463.754C169.161 463.283 168.986 462.651 168.986 461.851C168.986 461.198 169.149 460.602 169.474 460.06C169.811 459.522 170.286 459.095 170.898 458.779C171.523 458.468 172.254 458.313 173.091 458.313C174.329 458.313 175.316 458.668 176.053 459.38C176.79 460.073 177.196 461.02 177.271 462.216H174.76C174.722 461.745 174.547 461.376 174.235 461.104C173.935 460.82 173.529 460.678 173.016 460.678C172.542 460.678 172.173 460.78 171.91 460.98C171.661 461.175 171.536 461.456 171.536 461.811C171.536 462.207 171.711 462.514 172.06 462.727C172.41 462.927 172.954 463.131 173.691 463.345C174.441 463.558 175.06 463.781 175.547 464.007C176.034 464.234 176.453 464.59 176.803 465.074C177.165 465.545 177.353 466.172 177.365 466.955C177.365 467.635 177.196 468.248 176.859 468.786C176.534 469.328 176.059 469.755 175.434 470.066C174.822 470.369 174.104 470.515 173.279 470.515Z" fill="black"/>
<path d="M40.2893 203.649C40.8423 203.767 41.2968 204.082 41.653 204.594C42.0091 205.106 42.1872 205.693 42.1872 206.354C42.1872 206.952 42.056 207.48 41.7935 207.938C41.5405 208.387 41.1703 208.739 40.6829 208.995C40.1956 209.251 39.6192 209.379 38.9537 209.379H34.7222V198.208H38.771C39.4364 198.208 40.0081 198.331 40.4861 198.576C40.9735 198.822 41.339 199.163 41.5827 199.601C41.8357 200.038 41.9622 200.534 41.9622 201.089C41.9622 201.74 41.8076 202.284 41.4983 202.721C41.1984 203.159 40.7954 203.468 40.2893 203.649ZM36.6903 202.817H38.4898C38.9584 202.817 39.3193 202.7 39.5723 202.465C39.8254 202.22 39.9519 201.873 39.9519 201.425C39.9519 200.977 39.8254 200.63 39.5723 200.385C39.3193 200.139 38.9584 200.017 38.4898 200.017H36.6903V202.817ZM38.6726 207.554C39.1506 207.554 39.5208 207.426 39.7832 207.17C40.055 206.914 40.1909 206.551 40.1909 206.082C40.1909 205.602 40.0503 205.228 39.7691 204.962C39.488 204.684 39.1084 204.546 38.6304 204.546H36.6903V207.554H38.6726ZM43.2496 204.914C43.2496 204.018 43.4042 203.223 43.7135 202.529C44.0321 201.836 44.4586 201.302 44.9928 200.929C45.5364 200.555 46.1409 200.369 46.8063 200.369C47.3874 200.369 47.8935 200.502 48.3246 200.769C48.7651 201.036 49.1166 201.372 49.379 201.777V200.513H51.3613V209.379H49.379V208.082C49.126 208.499 48.7745 208.845 48.3246 209.123C47.8841 209.389 47.3734 209.523 46.7923 209.523C46.1362 209.523 45.5364 209.331 44.9928 208.947C44.4586 208.563 44.0321 208.024 43.7135 207.33C43.4042 206.626 43.2496 205.821 43.2496 204.914ZM49.379 204.946C49.379 204.402 49.2853 203.938 49.0979 203.553C48.9104 203.159 48.6574 202.86 48.3387 202.657C48.02 202.444 47.678 202.337 47.3124 202.337C46.9469 202.337 46.6095 202.439 46.3002 202.641C45.9909 202.844 45.7379 203.143 45.5411 203.537C45.3536 203.922 45.2599 204.38 45.2599 204.914C45.2599 205.447 45.3536 205.917 45.5411 206.322C45.7379 206.717 45.9909 207.021 46.3002 207.234C46.6189 207.448 46.9563 207.554 47.3124 207.554C47.678 207.554 48.02 207.453 48.3387 207.25C48.6574 207.037 48.9104 206.738 49.0979 206.354C49.2853 205.959 49.379 205.49 49.379 204.946ZM55.2519 197.536V209.379H53.2837V197.536H55.2519ZM56.6902 204.914C56.6902 204.018 56.8448 203.223 57.1541 202.529C57.4727 201.836 57.8992 201.302 58.4334 200.929C58.977 200.555 59.5815 200.369 60.2469 200.369C60.828 200.369 61.3341 200.502 61.7652 200.769C62.2057 201.036 62.5572 201.372 62.8196 201.777V200.513H64.8019V209.379H62.8196V208.082C62.5666 208.499 62.2151 208.845 61.7652 209.123C61.3247 209.389 60.814 209.523 60.2329 209.523C59.5768 209.523 58.977 209.331 58.4334 208.947C57.8992 208.563 57.4727 208.024 57.1541 207.33C56.8448 206.626 56.6902 205.821 56.6902 204.914ZM62.8196 204.946C62.8196 204.402 62.7259 203.938 62.5385 203.553C62.351 203.159 62.098 202.86 61.7793 202.657C61.4606 202.444 61.1186 202.337 60.753 202.337C60.3875 202.337 60.0501 202.439 59.7408 202.641C59.4316 202.844 59.1785 203.143 58.9817 203.537C58.7942 203.922 58.7005 204.38 58.7005 204.914C58.7005 205.447 58.7942 205.917 58.9817 206.322C59.1785 206.717 59.4316 207.021 59.7408 207.234C60.0595 207.448 60.3969 207.554 60.753 207.554C61.1186 207.554 61.4606 207.453 61.7793 207.25C62.098 207.037 62.351 206.738 62.5385 206.354C62.7259 205.959 62.8196 205.49 62.8196 204.946ZM71.0403 200.385C71.9681 200.385 72.7179 200.721 73.2896 201.393C73.8613 202.054 74.1472 202.983 74.1472 204.178V209.379H72.179V204.482C72.179 203.778 72.0244 203.239 71.7151 202.865C71.4058 202.481 70.984 202.289 70.4498 202.289C69.9062 202.289 69.4751 202.481 69.1564 202.865C68.8472 203.239 68.6925 203.778 68.6925 204.482V209.379H66.7243V200.513H68.6925V201.617C68.9549 201.233 69.2877 200.934 69.6907 200.721C70.103 200.497 70.5529 200.385 71.0403 200.385ZM75.5124 204.946C75.5124 204.028 75.6768 203.228 76.0048 202.545C76.3329 201.852 76.7874 201.318 77.3685 200.945C77.9496 200.561 78.615 200.369 79.3648 200.369C80.3301 200.369 81.1268 200.646 81.7547 201.201C82.392 201.745 82.8185 202.513 83.034 203.505H80.9112C80.7987 203.121 80.6066 202.823 80.3348 202.609C80.0724 202.385 79.7444 202.273 79.3507 202.273C78.7884 202.273 78.3432 202.508 78.0152 202.977C77.6872 203.436 77.5231 204.092 77.5231 204.946C77.5231 205.789 77.6872 206.445 78.0152 206.914C78.3432 207.373 78.7884 207.602 79.3507 207.602C80.1474 207.602 80.6675 207.197 80.9112 206.386H83.034C82.8185 207.346 82.392 208.109 81.7547 208.675C81.1174 209.24 80.3208 209.523 79.3648 209.523C78.615 209.523 77.9496 209.336 77.3685 208.963C76.7874 208.579 76.3329 208.045 76.0048 207.362C75.6768 206.669 75.5124 205.863 75.5124 204.946ZM91.7159 204.754C91.7159 205.074 91.6971 205.362 91.6596 205.618H85.966C86.0129 206.258 86.2097 206.759 86.5564 207.122C86.9032 207.485 87.3297 207.666 87.8358 207.666C88.5668 207.666 89.087 207.309 89.3962 206.594H91.5191C91.2941 207.448 90.863 208.152 90.2257 208.707C89.5884 209.251 88.8058 209.523 87.8779 209.523C87.1282 209.523 86.4534 209.336 85.8535 208.963C85.2631 208.579 84.7991 208.04 84.4617 207.346C84.1337 206.653 83.9697 205.853 83.9697 204.946C83.9697 204.028 84.1337 203.223 84.4617 202.529C84.7898 201.836 85.249 201.302 85.8395 200.929C86.4299 200.555 87.1094 200.369 87.8779 200.369C88.6183 200.369 89.2791 200.55 89.8602 200.913C90.4506 201.276 90.9052 201.793 91.2238 202.465C91.5519 203.127 91.7159 203.89 91.7159 204.754ZM89.6774 204.114C89.668 203.537 89.4853 203.079 89.1291 202.737C88.773 202.385 88.3372 202.209 87.8217 202.209C87.3343 202.209 86.922 202.38 86.5846 202.721C86.2565 203.052 86.055 203.516 85.98 204.114H89.6774Z" fill="white"/>
<path d="M164.024 199.649H159.469V202.385C159.665 202.108 159.947 201.884 160.312 201.713C160.678 201.532 161.067 201.441 161.479 201.441C162.229 201.441 162.843 201.628 163.321 202.001C163.799 202.375 164.145 202.855 164.361 203.441C164.577 204.018 164.684 204.636 164.684 205.298C164.684 206.525 164.375 207.512 163.756 208.258C163.147 209.005 162.276 209.379 161.142 209.379C160.073 209.379 159.22 209.075 158.583 208.467C157.946 207.858 157.585 207.064 157.5 206.082H159.412C159.497 206.509 159.684 206.85 159.975 207.106C160.275 207.362 160.654 207.49 161.114 207.49C161.666 207.49 162.084 207.293 162.365 206.898C162.646 206.503 162.786 205.981 162.786 205.33C162.786 204.668 162.641 204.167 162.351 203.826C162.069 203.473 161.652 203.297 161.099 203.297C160.706 203.297 160.378 203.409 160.115 203.633C159.853 203.858 159.665 204.156 159.553 204.53H157.669V197.68H164.024V199.649ZM166.182 203.393C166.182 201.548 166.473 200.102 167.054 199.056C167.644 198.011 168.619 197.488 169.978 197.488C171.337 197.488 172.307 198.011 172.888 199.056C173.479 200.102 173.774 201.548 173.774 203.393C173.774 205.25 173.479 206.706 172.888 207.762C172.307 208.819 171.337 209.347 169.978 209.347C168.619 209.347 167.644 208.819 167.054 207.762C166.473 206.706 166.182 205.25 166.182 203.393ZM171.834 203.393C171.834 202.604 171.787 201.942 171.693 201.409C171.609 200.865 171.431 200.422 171.159 200.081C170.897 199.739 170.503 199.569 169.978 199.569C169.453 199.569 169.055 199.739 168.783 200.081C168.521 200.422 168.343 200.865 168.249 201.409C168.165 201.942 168.122 202.604 168.122 203.393C168.122 204.204 168.165 204.887 168.249 205.442C168.333 205.986 168.511 206.429 168.783 206.77C169.055 207.101 169.453 207.266 169.978 207.266C170.503 207.266 170.901 207.101 171.173 206.77C171.445 206.429 171.623 205.986 171.707 205.442C171.792 204.887 171.834 204.204 171.834 203.393ZM175.271 203.393C175.271 201.548 175.562 200.102 176.143 199.056C176.733 198.011 177.708 197.488 179.067 197.488C180.426 197.488 181.396 198.011 181.977 199.056C182.567 200.102 182.863 201.548 182.863 203.393C182.863 205.25 182.567 206.706 181.977 207.762C181.396 208.819 180.426 209.347 179.067 209.347C177.708 209.347 176.733 208.819 176.143 207.762C175.562 206.706 175.271 205.25 175.271 203.393ZM180.923 203.393C180.923 202.604 180.876 201.942 180.782 201.409C180.698 200.865 180.52 200.422 180.248 200.081C179.985 199.739 179.592 199.569 179.067 199.569C178.542 199.569 178.144 199.739 177.872 200.081C177.609 200.422 177.431 200.865 177.338 201.409C177.253 201.942 177.211 202.604 177.211 203.393C177.211 204.204 177.253 204.887 177.338 205.442C177.422 205.986 177.6 206.429 177.872 206.77C178.144 207.101 178.542 207.266 179.067 207.266C179.592 207.266 179.99 207.101 180.262 206.77C180.534 206.429 180.712 205.986 180.796 205.442C180.88 204.887 180.923 204.204 180.923 203.393ZM184.359 203.393C184.359 201.548 184.65 200.102 185.231 199.056C185.822 198.011 186.796 197.488 188.155 197.488C189.514 197.488 190.484 198.011 191.065 199.056C191.656 200.102 191.951 201.548 191.951 203.393C191.951 205.25 191.656 206.706 191.065 207.762C190.484 208.819 189.514 209.347 188.155 209.347C186.796 209.347 185.822 208.819 185.231 207.762C184.65 206.706 184.359 205.25 184.359 203.393ZM190.011 203.393C190.011 202.604 189.964 201.942 189.87 201.409C189.786 200.865 189.608 200.422 189.336 200.081C189.074 199.739 188.68 199.569 188.155 199.569C187.63 199.569 187.232 199.739 186.96 200.081C186.698 200.422 186.52 200.865 186.426 201.409C186.342 201.942 186.3 202.604 186.3 203.393C186.3 204.204 186.342 204.887 186.426 205.442C186.51 205.986 186.688 206.429 186.96 206.77C187.232 207.101 187.63 207.266 188.155 207.266C188.68 207.266 189.078 207.101 189.35 206.77C189.622 206.429 189.8 205.986 189.884 205.442C189.969 204.887 190.011 204.204 190.011 203.393ZM193.448 203.393C193.448 201.548 193.739 200.102 194.32 199.056C194.91 198.011 195.885 197.488 197.244 197.488C198.603 197.488 199.573 198.011 200.154 199.056C200.745 200.102 201.04 201.548 201.04 203.393C201.04 205.25 200.745 206.706 200.154 207.762C199.573 208.819 198.603 209.347 197.244 209.347C195.885 209.347 194.91 208.819 194.32 207.762C193.739 206.706 193.448 205.25 193.448 203.393ZM199.1 203.393C199.1 202.604 199.053 201.942 198.959 201.409C198.875 200.865 198.697 200.422 198.425 200.081C198.162 199.739 197.769 199.569 197.244 199.569C196.719 199.569 196.321 199.739 196.049 200.081C195.787 200.422 195.609 200.865 195.515 201.409C195.43 201.942 195.388 202.604 195.388 203.393C195.388 204.204 195.43 204.887 195.515 205.442C195.599 205.986 195.777 206.429 196.049 206.77C196.321 207.101 196.719 207.266 197.244 207.266C197.769 207.266 198.167 207.101 198.439 206.77C198.711 206.429 198.889 205.986 198.973 205.442C199.058 204.887 199.1 204.204 199.1 203.393ZM202.537 203.393C202.537 201.548 202.827 200.102 203.408 199.056C203.999 198.011 204.973 197.488 206.332 197.488C207.691 197.488 208.661 198.011 209.242 199.056C209.833 200.102 210.128 201.548 210.128 203.393C210.128 205.25 209.833 206.706 209.242 207.762C208.661 208.819 207.691 209.347 206.332 209.347C204.973 209.347 203.999 208.819 203.408 207.762C202.827 206.706 202.537 205.25 202.537 203.393ZM208.188 203.393C208.188 202.604 208.141 201.942 208.047 201.409C207.963 200.865 207.785 200.422 207.513 200.081C207.251 199.739 206.857 199.569 206.332 199.569C205.808 199.569 205.409 199.739 205.137 200.081C204.875 200.422 204.697 200.865 204.603 201.409C204.519 201.942 204.477 202.604 204.477 203.393C204.477 204.204 204.519 204.887 204.603 205.442C204.688 205.986 204.866 206.429 205.137 206.77C205.409 207.101 205.808 207.266 206.332 207.266C206.857 207.266 207.256 207.101 207.527 206.77C207.799 206.429 207.977 205.986 208.062 205.442C208.146 204.887 208.188 204.204 208.188 203.393Z" fill="white"/>
<path d="M31.3145 238.452C31.3145 237.353 31.53 236.371 31.9611 235.507C32.4016 234.632 32.9968 233.955 33.7466 233.475C34.5057 232.984 35.3539 232.738 36.2911 232.738C37.3877 232.738 38.3483 233.059 39.1731 233.699C39.9979 234.339 40.5742 235.224 40.9023 236.355H38.6389C38.4139 235.822 38.0953 235.422 37.6829 235.155C37.2799 234.888 36.8113 234.755 36.2771 234.755C35.7054 234.755 35.1946 234.91 34.7447 235.219C34.3042 235.518 33.9574 235.944 33.7044 236.499C33.4607 237.054 33.3389 237.705 33.3389 238.452C33.3389 239.188 33.4607 239.839 33.7044 240.404C33.9574 240.959 34.3042 241.391 34.7447 241.7C35.1946 241.999 35.7054 242.149 36.2771 242.149C36.8113 242.149 37.2799 242.015 37.6829 241.748C38.0953 241.471 38.4139 241.066 38.6389 240.532H40.9023C40.5742 241.674 39.9979 242.565 39.1731 243.205C38.3577 243.834 37.397 244.149 36.2911 244.149C35.3539 244.149 34.5057 243.909 33.7466 243.429C32.9968 242.938 32.4016 242.261 31.9611 241.396C31.53 240.532 31.3145 239.551 31.3145 238.452ZM46.0416 244.197C45.2918 244.197 44.617 244.01 44.0172 243.637C43.4174 243.253 42.9442 242.714 42.5974 242.02C42.26 241.327 42.0913 240.527 42.0913 239.62C42.0913 238.713 42.2647 237.913 42.6115 237.219C42.9676 236.526 43.4502 235.992 44.0594 235.619C44.6686 235.235 45.348 235.043 46.0978 235.043C46.8476 235.043 47.5271 235.235 48.1363 235.619C48.7455 235.992 49.2235 236.526 49.5703 237.219C49.9264 237.913 50.1045 238.713 50.1045 239.62C50.1045 240.527 49.9217 241.327 49.5562 242.02C49.2 242.714 48.7127 243.253 48.0941 243.637C47.4849 244.01 46.8007 244.197 46.0416 244.197ZM46.0416 242.245C46.3977 242.245 46.7305 242.148 47.0397 241.956C47.3584 241.754 47.6114 241.455 47.7989 241.06C47.9863 240.666 48.0801 240.185 48.0801 239.62C48.0801 238.777 47.8832 238.132 47.4896 237.684C47.1053 237.225 46.632 236.995 46.0697 236.995C45.5074 236.995 45.0341 237.225 44.6498 237.684C44.2749 238.132 44.0875 238.777 44.0875 239.62C44.0875 240.463 44.2702 241.114 44.6358 241.572C45.0106 242.02 45.4793 242.245 46.0416 242.245ZM53.5164 236.563C53.7694 236.094 54.0974 235.726 54.5005 235.459C54.9128 235.192 55.3814 235.059 55.9063 235.059V237.411H55.3861C54.7676 237.411 54.2989 237.577 53.9803 237.908C53.671 238.238 53.5164 238.814 53.5164 239.636V244.053H51.5482V235.187H53.5164V236.563ZM59.2003 236.467C59.4533 236.062 59.8001 235.726 60.2406 235.459C60.6904 235.182 61.2012 235.043 61.7729 235.043C62.4384 235.043 63.0382 235.23 63.5724 235.603C64.116 235.976 64.5424 236.51 64.8517 237.203C65.1704 237.886 65.3297 238.681 65.3297 239.588C65.3297 240.495 65.1704 241.3 64.8517 242.004C64.5424 242.698 64.116 243.237 63.5724 243.621C63.0382 244.005 62.4384 244.197 61.7729 244.197C61.2012 244.197 60.6951 244.064 60.2546 243.797C59.8235 243.53 59.472 243.194 59.2003 242.789V248.278H57.2321V235.187H59.2003V236.467ZM63.3194 239.588C63.3194 239.054 63.221 238.596 63.0241 238.212C62.8367 237.817 62.5836 237.518 62.265 237.315C61.9557 237.113 61.6183 237.011 61.2528 237.011C60.8966 237.011 60.5592 237.118 60.2406 237.331C59.9313 237.534 59.6782 237.833 59.4814 238.228C59.294 238.622 59.2003 239.087 59.2003 239.62C59.2003 240.153 59.294 240.617 59.4814 241.012C59.6782 241.407 59.9313 241.711 60.2406 241.924C60.5592 242.127 60.8966 242.229 61.2528 242.229C61.6183 242.229 61.9557 242.122 62.265 241.908C62.5836 241.695 62.8367 241.391 63.0241 240.996C63.221 240.602 63.3194 240.132 63.3194 239.588ZM74.1127 235.187V244.053H72.1305V242.933C71.8774 243.317 71.5447 243.621 71.1323 243.845C70.7293 244.058 70.2888 244.165 69.8108 244.165C69.2016 244.165 68.6627 244.021 68.1941 243.733C67.7255 243.434 67.3553 243.002 67.0835 242.437C66.8211 241.86 66.6899 241.178 66.6899 240.388V235.187H68.658V240.068C68.658 240.772 68.8127 241.316 69.122 241.7C69.4312 242.074 69.853 242.261 70.3872 242.261C70.9308 242.261 71.3572 242.074 71.6665 241.7C71.9758 241.316 72.1305 240.772 72.1305 240.068V235.187H74.1127ZM79.0347 244.197C78.3974 244.197 77.8257 244.069 77.3196 243.813C76.8135 243.546 76.4105 243.189 76.1105 242.741C75.82 242.293 75.6607 241.796 75.6326 241.252H77.6148C77.6523 241.594 77.7976 241.876 78.0506 242.1C78.313 242.325 78.6364 242.437 79.0206 242.437C79.3955 242.437 79.6861 242.351 79.8923 242.181C80.1078 242.01 80.2156 241.791 80.2156 241.524C80.2156 241.236 80.0844 241.023 79.822 240.884C79.5689 240.735 79.1612 240.575 78.5989 240.404C78.0178 240.244 77.5398 240.079 77.1649 239.908C76.7994 239.737 76.4808 239.476 76.209 239.124C75.9465 238.772 75.8153 238.297 75.8153 237.7C75.8153 237.209 75.9372 236.761 76.1808 236.355C76.4339 235.95 76.79 235.63 77.2493 235.395C77.7179 235.16 78.2662 235.043 78.8941 235.043C79.822 235.043 80.5624 235.31 81.1153 235.843C81.6683 236.366 81.9729 237.075 82.0291 237.972H80.1453C80.1172 237.62 79.986 237.342 79.7517 237.139C79.5267 236.926 79.2221 236.819 78.8379 236.819C78.4817 236.819 78.2052 236.894 78.0084 237.043C77.821 237.193 77.7273 237.401 77.7273 237.668C77.7273 237.966 77.8585 238.196 78.1209 238.356C78.3833 238.505 78.791 238.66 79.344 238.82C79.9063 238.98 80.3702 239.145 80.7358 239.316C81.1013 239.487 81.4152 239.753 81.6777 240.116C81.9495 240.468 82.09 240.938 82.0994 241.524C82.0994 242.036 81.9729 242.495 81.7198 242.901C81.4762 243.306 81.12 243.626 80.6514 243.861C80.1922 244.085 79.6533 244.197 79.0347 244.197ZM93.1243 232.882V234.691H89.0333V237.555H92.1684V239.332H89.0333V244.053H87.0652V232.882H93.1243ZM101.872 235.187V244.053H99.8899V242.933C99.6369 243.317 99.3042 243.621 98.8918 243.845C98.4888 244.058 98.0483 244.165 97.5703 244.165C96.9611 244.165 96.4222 244.021 95.9536 243.733C95.485 243.434 95.1148 243.002 94.843 242.437C94.5806 241.86 94.4493 241.178 94.4493 240.388V235.187H96.4175V240.068C96.4175 240.772 96.5721 241.316 96.8814 241.7C97.1907 242.074 97.6125 242.261 98.1467 242.261C98.6903 242.261 99.1167 242.074 99.426 241.7C99.7353 241.316 99.8899 240.772 99.8899 240.068V235.187H101.872ZM108.13 235.059C109.058 235.059 109.808 235.395 110.379 236.067C110.951 236.729 111.237 237.657 111.237 238.852V244.053H109.269V239.156C109.269 238.452 109.114 237.913 108.805 237.54C108.496 237.155 108.074 236.963 107.54 236.963C106.996 236.963 106.565 237.155 106.246 237.54C105.937 237.913 105.782 238.452 105.782 239.156V244.053H103.814V235.187H105.782V236.291C106.045 235.907 106.377 235.608 106.781 235.395C107.193 235.171 107.643 235.059 108.13 235.059ZM112.603 239.588C112.603 238.692 112.757 237.897 113.067 237.203C113.385 236.51 113.816 235.976 114.36 235.603C114.904 235.23 115.508 235.043 116.173 235.043C116.68 235.043 117.162 235.171 117.621 235.427C118.081 235.672 118.446 236.003 118.718 236.419V232.21H120.714V244.053H118.718V242.741C118.474 243.178 118.132 243.53 117.692 243.797C117.251 244.064 116.74 244.197 116.159 244.197C115.503 244.197 114.904 244.005 114.36 243.621C113.816 243.237 113.385 242.698 113.067 242.004C112.757 241.3 112.603 240.495 112.603 239.588ZM118.732 239.62C118.732 239.076 118.638 238.612 118.451 238.228C118.263 237.833 118.01 237.534 117.692 237.331C117.373 237.118 117.031 237.011 116.666 237.011C116.3 237.011 115.963 237.113 115.653 237.315C115.344 237.518 115.091 237.817 114.894 238.212C114.707 238.596 114.613 239.054 114.613 239.588C114.613 240.121 114.707 240.591 114.894 240.996C115.091 241.391 115.344 241.695 115.653 241.908C115.972 242.122 116.309 242.229 116.666 242.229C117.031 242.229 117.373 242.127 117.692 241.924C118.01 241.711 118.263 241.412 118.451 241.028C118.638 240.633 118.732 240.164 118.732 239.62Z" fill="white"/>
<path d="M154.329 234.451V232.386H157.717V244.053H155.693V234.451H154.329ZM159.661 238.068C159.661 236.222 159.952 234.776 160.533 233.731C161.123 232.685 162.098 232.162 163.457 232.162C164.816 232.162 165.786 232.685 166.367 233.731C166.958 234.776 167.253 236.222 167.253 238.068C167.253 239.924 166.958 241.38 166.367 242.436C165.786 243.493 164.816 244.021 163.457 244.021C162.098 244.021 161.123 243.493 160.533 242.436C159.952 241.38 159.661 239.924 159.661 238.068ZM165.313 238.068C165.313 237.278 165.266 236.617 165.172 236.083C165.088 235.539 164.91 235.096 164.638 234.755C164.376 234.413 163.982 234.243 163.457 234.243C162.932 234.243 162.534 234.413 162.262 234.755C162 235.096 161.822 235.539 161.728 236.083C161.644 236.617 161.601 237.278 161.601 238.068C161.601 238.878 161.644 239.561 161.728 240.116C161.812 240.66 161.99 241.103 162.262 241.444C162.534 241.775 162.932 241.94 163.457 241.94C163.982 241.94 164.38 241.775 164.652 241.444C164.924 241.103 165.102 240.66 165.186 240.116C165.271 239.561 165.313 238.878 165.313 238.068ZM168.75 238.068C168.75 236.222 169.041 234.776 169.622 233.731C170.212 232.685 171.187 232.162 172.546 232.162C173.905 232.162 174.875 232.685 175.456 233.731C176.046 234.776 176.342 236.222 176.342 238.068C176.342 239.924 176.046 241.38 175.456 242.436C174.875 243.493 173.905 244.021 172.546 244.021C171.187 244.021 170.212 243.493 169.622 242.436C169.041 241.38 168.75 239.924 168.75 238.068ZM174.402 238.068C174.402 237.278 174.355 236.617 174.261 236.083C174.177 235.539 173.999 235.096 173.727 234.755C173.464 234.413 173.071 234.243 172.546 234.243C172.021 234.243 171.623 234.413 171.351 234.755C171.088 235.096 170.91 235.539 170.817 236.083C170.732 236.617 170.69 237.278 170.69 238.068C170.69 238.878 170.732 239.561 170.817 240.116C170.901 240.66 171.079 241.103 171.351 241.444C171.623 241.775 172.021 241.94 172.546 241.94C173.071 241.94 173.469 241.775 173.741 241.444C174.013 241.103 174.191 240.66 174.275 240.116C174.359 239.561 174.402 238.878 174.402 238.068ZM177.838 238.068C177.838 236.222 178.129 234.776 178.71 233.731C179.3 232.685 180.275 232.162 181.634 232.162C182.993 232.162 183.963 232.685 184.544 233.731C185.135 234.776 185.43 236.222 185.43 238.068C185.43 239.924 185.135 241.38 184.544 242.436C183.963 243.493 182.993 244.021 181.634 244.021C180.275 244.021 179.3 243.493 178.71 242.436C178.129 241.38 177.838 239.924 177.838 238.068ZM183.49 238.068C183.49 237.278 183.443 236.617 183.349 236.083C183.265 235.539 183.087 235.096 182.815 234.755C182.553 234.413 182.159 234.243 181.634 234.243C181.109 234.243 180.711 234.413 180.439 234.755C180.177 235.096 179.999 235.539 179.905 236.083C179.821 236.617 179.778 237.278 179.778 238.068C179.778 238.878 179.821 239.561 179.905 240.116C179.989 240.66 180.167 241.103 180.439 241.444C180.711 241.775 181.109 241.94 181.634 241.94C182.159 241.94 182.557 241.775 182.829 241.444C183.101 241.103 183.279 240.66 183.363 240.116C183.448 239.561 183.49 238.878 183.49 238.068ZM186.927 238.068C186.927 236.222 187.217 234.776 187.798 233.731C188.389 232.685 189.364 232.162 190.723 232.162C192.082 232.162 193.052 232.685 193.633 233.731C194.223 234.776 194.518 236.222 194.518 238.068C194.518 239.924 194.223 241.38 193.633 242.436C193.052 243.493 192.082 244.021 190.723 244.021C189.364 244.021 188.389 243.493 187.798 242.436C187.217 241.38 186.927 239.924 186.927 238.068ZM192.578 238.068C192.578 237.278 192.531 236.617 192.438 236.083C192.353 235.539 192.175 235.096 191.903 234.755C191.641 234.413 191.247 234.243 190.723 234.243C190.198 234.243 189.799 234.413 189.528 234.755C189.265 235.096 189.087 235.539 188.993 236.083C188.909 236.617 188.867 237.278 188.867 238.068C188.867 238.878 188.909 239.561 188.993 240.116C189.078 240.66 189.256 241.103 189.528 241.444C189.799 241.775 190.198 241.94 190.723 241.94C191.247 241.94 191.646 241.775 191.918 241.444C192.189 241.103 192.367 240.66 192.452 240.116C192.536 239.561 192.578 238.878 192.578 238.068ZM196.016 238.068C196.016 236.222 196.306 234.776 196.887 233.731C197.478 232.685 198.452 232.162 199.811 232.162C201.17 232.162 202.14 232.685 202.721 233.731C203.312 234.776 203.607 236.222 203.607 238.068C203.607 239.924 203.312 241.38 202.721 242.436C202.14 243.493 201.17 244.021 199.811 244.021C198.452 244.021 197.478 243.493 196.887 242.436C196.306 241.38 196.016 239.924 196.016 238.068ZM201.667 238.068C201.667 237.278 201.62 236.617 201.526 236.083C201.442 235.539 201.264 235.096 200.992 234.755C200.73 234.413 200.336 234.243 199.811 234.243C199.286 234.243 198.888 234.413 198.616 234.755C198.354 235.096 198.176 235.539 198.082 236.083C197.998 236.617 197.956 237.278 197.956 238.068C197.956 238.878 197.998 239.561 198.082 240.116C198.166 240.66 198.345 241.103 198.616 241.444C198.888 241.775 199.286 241.94 199.811 241.94C200.336 241.94 200.734 241.775 201.006 241.444C201.278 241.103 201.456 240.66 201.54 240.116C201.625 239.561 201.667 238.878 201.667 238.068ZM205.104 238.068C205.104 236.222 205.394 234.776 205.976 233.731C206.566 232.685 207.541 232.162 208.9 232.162C210.259 232.162 211.229 232.685 211.81 233.731C212.4 234.776 212.695 236.222 212.695 238.068C212.695 239.924 212.4 241.38 211.81 242.436C211.229 243.493 210.259 244.021 208.9 244.021C207.541 244.021 206.566 243.493 205.976 242.436C205.394 241.38 205.104 239.924 205.104 238.068ZM210.755 238.068C210.755 237.278 210.709 236.617 210.615 236.083C210.53 235.539 210.352 235.096 210.081 234.755C209.818 234.413 209.424 234.243 208.9 234.243C208.375 234.243 207.976 234.413 207.705 234.755C207.442 235.096 207.264 235.539 207.17 236.083C207.086 236.617 207.044 237.278 207.044 238.068C207.044 238.878 207.086 239.561 207.17 240.116C207.255 240.66 207.433 241.103 207.705 241.444C207.976 241.775 208.375 241.94 208.9 241.94C209.424 241.94 209.823 241.775 210.095 241.444C210.366 241.103 210.545 240.66 210.629 240.116C210.713 239.561 210.755 238.878 210.755 238.068Z" fill="white"/>
</g>
</g>
<defs>
<filter id="filter0_d" x="0" y="0" width="543" height="521" filterUnits="userSpaceOnUse" color-interpolation-filters="sRGB">
<feFlood flood-opacity="0" result="BackgroundImageFix"/>
<feColorMatrix in="SourceAlpha" type="matrix" values="0 0 0 0 0 0 0 0 0 0 0 0 0 0 0 0 0 0 127 0"/>
<feOffset dy="4"/>
<feGaussianBlur stdDeviation="2"/>
<feColorMatrix type="matrix" values="0 0 0 0 0 0 0 0 0 0 0 0 0 0 0 0 0 0 0.25 0"/>
<feBlend mode="normal" in2="BackgroundImageFix" result="effect1_dropShadow"/>
<feBlend mode="normal" in="SourceGraphic" in2="effect1_dropShadow" result="shape"/>
</filter>
<clipPath id="clip0">
<rect x="4" width="535" height="513" fill="white"/>
</clipPath>
</defs>
</svg>
